<?xml version="1.0" encoding="UTF-8" standalone="no"?>
<!-- Generator: Adobe Illustrator 12.0.1, SVG Export Plug-In . SVG Version: 6.00 Build 51448)  -->
<svg
   xmlns:dc="http://purl.org/dc/elements/1.1/"
   xmlns:cc="http://web.resource.org/cc/"
   xmlns:rdf="http://www.w3.org/1999/02/22-rdf-syntax-ns#"
   xmlns:svg="http://www.w3.org/2000/svg"
   xmlns="http://www.w3.org/2000/svg"
   xmlns:sodipodi="http://sodipodi.sourceforge.net/DTD/sodipodi-0.dtd"
   xmlns:inkscape="http://www.inkscape.org/namespaces/inkscape"
   version="1.1"
   id="Layer_1"
   width="333.784"
   height="121.184"
   viewBox="0 0 333.784 121.184"
   style="overflow:visible;enable-background:new 0 0 333.784 121.184;"
   xml:space="preserve"
   sodipodi:version="0.32"
   inkscape:version="0.44.1"
   sodipodi:docname="Arginin.svg"
   sodipodi:docbase="E:\Eigene Dateien"><metadata
   id="metadata78"><rdf:RDF><cc:Work
       rdf:about=""><dc:format>image/svg+xml</dc:format><dc:type
         rdf:resource="http://purl.org/dc/dcmitype/StillImage" /></cc:Work></rdf:RDF></metadata><defs
   id="defs76" /><sodipodi:namedview
   inkscape:window-height="573"
   inkscape:window-width="925"
   inkscape:pageshadow="2"
   inkscape:pageopacity="0.0"
   guidetolerance="10.0"
   gridtolerance="10.0"
   objecttolerance="10.0"
   borderopacity="1.0"
   bordercolor="#666666"
   pagecolor="#ffffff"
   id="base"
   inkscape:zoom="2.5195935"
   inkscape:cx="166.892"
   inkscape:cy="60.591999"
   inkscape:window-x="220"
   inkscape:window-y="220"
   inkscape:current-layer="Layer_1" />
<path
   d="M 204.02085,49.2794 L 204.02085,47.4269 L 236.70085,66.2369 L 236.70085,67.1869 L 235.89335,67.6619 L 204.02085,49.2794 z "
   id="polygon3" />
<path
   d="M 237.50835,67.6619 L 236.70085,67.1869 L 236.70085,66.2369 L 269.33335,47.4269 L 269.33335,49.2794 L 237.50835,67.6619 z "
   id="polygon5" />
<g
   id="g7"
   transform="matrix(0.95,0,0,0.95,8.3446,3.0296)">
	<path
   d="M 300.881,68.618 C 300.881,65.766 301.647,63.533 303.179,61.919 C 304.711,60.306 306.689,59.499 309.112,59.499 C 310.699,59.499 312.13,59.878 313.403,60.636 C 314.676,61.394 315.648,62.451 316.317,63.807 C 316.985,65.163 317.319,66.701 317.319,68.419 C 317.319,70.161 316.967,71.721 316.264,73.096 C 315.56,74.472 314.563,75.513 313.274,76.22 C 311.984,76.927 310.592,77.281 309.1,77.281 C 307.482,77.281 306.036,76.89 304.762,76.109 C 303.488,75.328 302.523,74.261 301.866,72.909 C 301.209,71.557 300.881,70.126 300.881,68.618 z M 303.225,68.647 C 303.225,70.717 303.782,72.348 304.896,73.54 C 306.01,74.732 307.408,75.327 309.088,75.327 C 310.8,75.327 312.209,74.725 313.316,73.522 C 314.423,72.319 314.975,70.612 314.975,68.401 C 314.975,67.003 314.739,65.782 314.266,64.739 C 313.792,63.696 313.1,62.887 312.19,62.313 C 311.28,61.739 310.257,61.452 309.124,61.452 C 307.514,61.452 306.128,62.005 304.967,63.11 C 303.806,64.215 303.225,66.062 303.225,68.647 z "
   id="path9" />
	<path
   d="M 320.331,76.983 L 320.331,59.796 L 322.612,59.796 L 322.612,66.859 L 331.503,66.859 L 331.503,59.796 L 333.784,59.796 L 333.784,76.984 L 331.503,76.984 L 331.503,68.89 L 322.612,68.89 L 322.612,76.984 L 320.331,76.984 L 320.331,76.983 z "
   id="path11" />
</g>
<path
   d="M 269.33335,49.2794 L 269.33335,47.4269 L 293.79585,61.5344 L 292.98835,62.9594 L 269.33335,49.2794 z "
   id="polygon13" />
<g
   id="g15"
   transform="matrix(0.95,0,0,0.95,8.3446,3.0296)">
	<path
   d="M 266.481,9.119 C 266.481,6.267 267.247,4.034 268.78,2.42 C 270.311,0.807 272.29,0 274.712,0 C 276.3,0 277.73,0.379 279.003,1.137 C 280.277,1.895 281.249,2.952 281.917,4.308 C 282.585,5.664 282.919,7.202 282.919,8.92 C 282.919,10.662 282.567,12.222 281.864,13.597 C 281.161,14.973 280.164,16.014 278.874,16.721 C 277.585,17.428 276.193,17.782 274.7,17.782 C 273.083,17.782 271.636,17.391 270.362,16.61 C 269.088,15.829 268.124,14.762 267.466,13.41 C 266.809,12.058 266.481,10.627 266.481,9.119 z M 268.825,9.148 C 268.825,11.218 269.382,12.849 270.497,14.041 C 271.61,15.232 273.009,15.828 274.688,15.828 C 276.401,15.828 277.809,15.226 278.917,14.023 C 280.022,12.82 280.575,11.113 280.575,8.902 C 280.575,7.504 280.339,6.283 279.866,5.24 C 279.393,4.197 278.701,3.388 277.79,2.814 C 276.88,2.24 275.858,1.953 274.724,1.953 C 273.115,1.953 271.728,2.506 270.568,3.611 C 269.405,4.717 268.825,6.563 268.825,9.148 z "
   id="path17" />
</g>
<path
   d="M 265.67585,22.0619 L 267.2899,22.0619 L 267.2899,49.9919 L 265.67585,49.9919 L 265.67585,22.0619 z "
   id="rect19" />
<path
   d="M 271.37585,22.0619 L 272.9899,22.0619 L 272.9899,49.9919 L 271.37585,49.9919 L 271.37585,22.0619 z "
   id="rect21" />
<g
   id="g23"
   transform="matrix(0.95,0,0,0.95,8.3446,3.0296)">
	<path
   d="M 233.553,116.684 L 233.553,99.496 L 235.893,99.496 L 244.897,112.984 L 244.897,99.496 L 247.085,99.496 L 247.085,116.684 L 244.745,116.684 L 235.741,103.195 L 235.741,116.684 L 233.553,116.684 z "
   id="path25" />
	<path
   d="M 250.995,116.684 L 250.995,99.496 L 253.276,99.496 L 253.276,106.559 L 262.167,106.559 L 262.167,99.496 L 264.448,99.496 L 264.448,116.684 L 262.167,116.684 L 262.167,108.59 L 253.276,108.59 L 253.276,116.684 L 250.995,116.684 z "
   id="path27" />
</g>
<g
   id="g29"
   transform="matrix(0.95,0,0,0.95,8.3446,3.0296)">
	<path
   d="M 274.229,119.668 L 274.229,121.184 L 265.698,121.184 C 265.686,120.803 265.749,120.437 265.884,120.084 C 266.103,119.504 266.452,118.934 266.933,118.372 C 267.414,117.81 268.103,117.161 269.003,116.424 C 270.398,115.272 271.345,114.361 271.843,113.691 C 272.341,113.021 272.589,112.387 272.589,111.788 C 272.589,111.162 272.364,110.634 271.914,110.204 C 271.464,109.774 270.878,109.559 270.153,109.559 C 269.387,109.559 268.776,109.788 268.317,110.247 C 267.858,110.705 267.626,111.341 267.62,112.152 L 265.995,111.98 C 266.106,110.765 266.526,109.838 267.255,109.201 C 267.984,108.564 268.962,108.246 270.189,108.246 C 271.428,108.246 272.41,108.589 273.131,109.275 C 273.853,109.961 274.214,110.81 274.214,111.825 C 274.214,112.342 274.109,112.848 273.898,113.346 C 273.686,113.844 273.335,114.368 272.845,114.92 C 272.353,115.471 271.54,116.228 270.404,117.189 C 269.454,117.986 268.843,118.527 268.572,118.81 C 268.301,119.095 268.076,119.38 267.898,119.667 L 274.229,119.667 L 274.229,119.668 z "
   id="path31" />
</g>
<path
   d="M 237.50835,95.3544 L 235.89335,95.3544 L 235.89335,67.6619 L 236.70085,67.1869 L 237.50835,67.6619 L 237.50835,95.3544 z "
   id="polygon33" />
<path
   d="M 204.02085,47.4269 L 204.02085,49.2794 L 171.38835,68.1369 L 171.38835,66.2369 L 204.02085,47.4269 z "
   id="polygon35" />
<path
   d="M 171.38835,66.2369 L 171.38835,68.1369 L 138.75585,49.2794 L 138.75585,47.4269 L 171.38835,66.2369 z "
   id="polygon37" />
<g
   id="g39"
   transform="matrix(0.95,0,0,0.95,8.3446,3.0296)">
	<path
   d="M 96.103,76.983 L 96.103,59.796 L 98.443,59.796 L 107.447,73.284 L 107.447,59.796 L 109.635,59.796 L 109.635,76.984 L 107.295,76.984 L 98.291,63.495 L 98.291,76.984 L 96.103,76.984 L 96.103,76.983 z "
   id="path41" />
</g>
<g
   id="g43"
   transform="matrix(0.95,0,0,0.95,8.3446,3.0296)">
	<path
   d="M 96.212,96.934 L 96.212,79.746 L 98.493,79.746 L 98.493,86.809 L 107.384,86.809 L 107.384,79.746 L 109.665,79.746 L 109.665,96.934 L 107.384,96.934 L 107.384,88.84 L 98.493,88.84 L 98.493,96.934 L 96.212,96.934 z "
   id="path45" />
</g>
<path
   d="M 138.75585,47.4269 L 138.75585,49.2794 L 116.19335,62.2944 L 115.38585,60.8694 L 138.75585,47.4269 z "
   id="polygon47" />
<path
   d="M 96.71835,60.8694 L 95.91085,62.2469 L 73.44335,49.2794 L 73.44335,47.4269 L 96.71835,60.8694 z "
   id="polygon49" />
<g
   id="g51"
   transform="matrix(0.95,0,0,0.95,8.3446,3.0296)">
	<path
   d="M 0,76.983 L 0,59.796 L 2.281,59.796 L 2.281,66.859 L 11.172,66.859 L 11.172,59.796 L 13.453,59.796 L 13.453,76.984 L 11.172,76.984 L 11.172,68.89 L 2.281,68.89 L 2.281,76.984 L 0,76.984 L 0,76.983 z "
   id="path53" />
</g>
<g
   id="g55"
   transform="matrix(0.95,0,0,0.95,8.3446,3.0296)">
	<path
   d="M 22.774,79.969 L 22.774,81.485 L 14.243,81.485 C 14.231,81.104 14.293,80.738 14.429,80.385 C 14.647,79.805 14.996,79.235 15.477,78.673 C 15.957,78.111 16.647,77.462 17.547,76.725 C 18.943,75.573 19.889,74.662 20.387,73.992 C 20.885,73.322 21.134,72.688 21.134,72.089 C 21.134,71.463 20.909,70.935 20.459,70.505 C 20.009,70.075 19.422,69.86 18.699,69.86 C 17.933,69.86 17.322,70.089 16.863,70.548 C 16.404,71.006 16.172,71.642 16.166,72.453 L 14.541,72.281 C 14.652,71.066 15.072,70.139 15.801,69.502 C 16.529,68.865 17.507,68.547 18.735,68.547 C 19.974,68.547 20.955,68.89 21.677,69.576 C 22.399,70.262 22.76,71.111 22.76,72.126 C 22.76,72.643 22.654,73.149 22.443,73.647 C 22.232,74.145 21.88,74.669 21.39,75.221 C 20.899,75.772 20.086,76.529 18.95,77.49 C 17.999,78.287 17.388,78.828 17.117,79.111 C 16.846,79.396 16.621,79.681 16.444,79.968 L 22.774,79.968 L 22.774,79.969 z "
   id="path57" />
</g>
<g
   id="g59"
   transform="matrix(0.95,0,0,0.95,8.3446,3.0296)">
	<path
   d="M 24.773,76.983 L 24.773,59.796 L 27.113,59.796 L 36.117,73.284 L 36.117,59.796 L 38.305,59.796 L 38.305,76.984 L 35.965,76.984 L 26.96,63.494 L 26.96,76.983 L 24.773,76.983 z "
   id="path61" />
</g>
<path
   d="M 73.44335,47.4269 L 73.44335,49.2794 L 50.78585,62.3419 L 49.97835,60.9169 L 73.44335,47.4269 z "
   id="polygon63" />
<g
   id="g65"
   transform="matrix(0.95,0,0,0.95,8.3446,3.0296)">
	<path
   d="M 61.703,17.484 L 61.703,0.297 L 64.043,0.297 L 73.047,13.785 L 73.047,0.297 L 75.235,0.297 L 75.235,17.485 L 72.895,17.485 L 63.891,3.995 L 63.891,17.484 L 61.703,17.484 z "
   id="path67" />
	<path
   d="M 79.145,17.484 L 79.145,0.297 L 81.426,0.297 L 81.426,7.36 L 90.317,7.36 L 90.317,0.297 L 92.598,0.297 L 92.598,17.485 L 90.317,17.485 L 90.317,9.391 L 81.426,9.391 L 81.426,17.485 L 79.145,17.485 L 79.145,17.484 z "
   id="path69" />
</g>
<path
   d="M 69.785853,21.776899 L 71.400853,21.776899 L 71.400853,49.9919 L 69.785853,49.9919 L 69.785853,21.776899 z "
   id="rect71" />
<path
   d="M 75.43835,21.776899 L 77.05335,21.776899 L 77.05335,49.9919 L 75.43835,49.9919 L 75.43835,21.776899 z "
   id="rect73" />
</svg>