<?xml version="1.0" encoding="UTF-8" standalone="no"?>
<!-- Generator: Adobe Illustrator 12.0.1, SVG Export Plug-In . SVG Version: 6.00 Build 51448)  -->
<svg
   xmlns:dc="http://purl.org/dc/elements/1.1/"
   xmlns:cc="http://web.resource.org/cc/"
   xmlns:rdf="http://www.w3.org/1999/02/22-rdf-syntax-ns#"
   xmlns:svg="http://www.w3.org/2000/svg"
   xmlns="http://www.w3.org/2000/svg"
   xmlns:sodipodi="http://sodipodi.sourceforge.net/DTD/sodipodi-0.dtd"
   xmlns:inkscape="http://www.inkscape.org/namespaces/inkscape"
   version="1.1"
   id="Layer_1"
   width="224.238"
   height="84.394"
   viewBox="0 0 224.238 84.394"
   style="overflow:visible;enable-background:new 0 0 224.238 84.394;"
   xml:space="preserve"
   sodipodi:version="0.32"
   inkscape:version="0.45.1"
   sodipodi:docname="L-Asparagin phys.svg"
   inkscape:output_extension="org.inkscape.output.svg.inkscape"
   sodipodi:docbase="C:\"><metadata
   id="metadata56"><rdf:RDF><cc:Work
       rdf:about=""><dc:format>image/svg+xml</dc:format><dc:type
         rdf:resource="http://purl.org/dc/dcmitype/StillImage" /></cc:Work></rdf:RDF></metadata><defs
   id="defs54" /><sodipodi:namedview
   inkscape:window-height="579"
   inkscape:window-width="801"
   inkscape:pageshadow="2"
   inkscape:pageopacity="0.0"
   guidetolerance="10.0"
   gridtolerance="10.0"
   objecttolerance="10.0"
   borderopacity="1.0"
   bordercolor="#666666"
   pagecolor="#ffffff"
   id="base"
   inkscape:zoom="3.1974954"
   inkscape:cx="112.119"
   inkscape:cy="42.196999"
   inkscape:window-x="110"
   inkscape:window-y="110"
   inkscape:current-layer="Layer_1" />
<g
   id="g3"
   transform="matrix(0.95,0,0,0.95,5.622825,2.109875)">
	<path
   d="M 132.266,79.675 L 132.266,62.487 L 134.606,62.487 L 143.61,75.976 L 143.61,62.487 L 145.798,62.487 L 145.798,79.675 L 143.458,79.675 L 134.454,66.186 L 134.454,79.675 L 132.266,79.675 z "
   id="path5" />
	<path
   d="M 149.708,79.675 L 149.708,62.487 L 151.989,62.487 L 151.989,69.55 L 160.88,69.55 L 160.88,62.487 L 163.161,62.487 L 163.161,79.675 L 160.88,79.675 L 160.88,71.581 L 151.989,71.581 L 151.989,79.675 L 149.708,79.675 z "
   id="path7" />
</g>
<g
   id="g9"
   transform="matrix(0.95,0,0,0.95,5.622825,2.109875)">
	<path
   d="M 165.629,80.769 L 167.207,80.55 C 167.39,81.446 167.699,82.092 168.135,82.488 C 168.572,82.883 169.108,83.081 169.742,83.081 C 170.495,83.081 171.129,82.823 171.64,82.309 C 172.154,81.793 172.41,81.155 172.41,80.393 C 172.41,79.667 172.172,79.069 171.694,78.597 C 171.217,78.125 170.611,77.89 169.875,77.89 C 169.574,77.89 169.2,77.949 168.753,78.066 L 168.93,76.675 C 169.035,76.687 169.121,76.693 169.186,76.693 C 169.86,76.693 170.467,76.518 171.007,76.167 C 171.547,75.816 171.817,75.275 171.817,74.544 C 171.817,73.965 171.62,73.485 171.226,73.106 C 170.832,72.727 170.324,72.536 169.701,72.536 C 169.084,72.536 168.569,72.73 168.157,73.118 C 167.746,73.506 167.481,74.088 167.364,74.864 L 165.786,74.583 C 165.979,73.521 166.42,72.698 167.106,72.115 C 167.792,71.531 168.645,71.239 169.667,71.239 C 170.371,71.239 171.02,71.389 171.612,71.691 C 172.204,71.992 172.657,72.403 172.971,72.923 C 173.284,73.444 173.442,73.996 173.442,74.581 C 173.442,75.137 173.293,75.643 172.994,76.099 C 172.695,76.555 172.253,76.917 171.667,77.187 C 172.429,77.363 173.021,77.728 173.446,78.281 C 173.87,78.836 174.083,79.528 174.083,80.36 C 174.083,81.486 173.672,82.439 172.851,83.221 C 172.029,84.003 170.99,84.395 169.734,84.395 C 168.601,84.395 167.66,84.058 166.912,83.386 C 166.162,82.711 165.735,81.84 165.629,80.769 z "
   id="path11" />
</g>
<path
   d="M 141.36548,59.276125 L 134.09893,59.276125 L 136.90143,31.536125 L 137.75643,31.107675 L 138.61143,31.536125 L 141.36548,59.276125 z "
   id="polygon13" />
<path
   d="M 105.12393,13.201125 L 105.12393,11.348625 L 137.75643,30.157675 L 137.75643,31.107675 L 136.90143,31.536125 L 105.12393,13.201125 z "
   id="polygon15" />
<g
   id="g17"
   transform="matrix(0.95,0,0,0.95,5.622825,2.109875)">
	<path
   d="M 178.881,14.147 L 181.162,14.721 C 180.685,16.591 179.829,18.017 178.593,18.998 C 177.356,19.979 175.844,20.471 174.057,20.471 C 172.207,20.471 170.703,20.094 169.543,19.339 C 168.384,18.585 167.502,17.491 166.897,16.061 C 166.292,14.631 165.99,13.093 165.99,11.452 C 165.99,9.662 166.332,8.099 167.013,6.766 C 167.697,5.433 168.667,4.419 169.928,3.728 C 171.188,3.037 172.574,2.69 174.088,2.69 C 175.805,2.69 177.248,3.128 178.418,4.004 C 179.589,4.881 180.403,6.112 180.864,7.701 L 178.63,8.228 C 178.232,6.978 177.655,6.068 176.899,5.498 C 176.143,4.928 175.19,4.643 174.044,4.643 C 172.726,4.643 171.624,4.959 170.738,5.592 C 169.853,6.225 169.23,7.074 168.872,8.141 C 168.514,9.208 168.334,10.307 168.334,11.44 C 168.334,12.901 168.547,14.176 168.971,15.266 C 169.397,16.356 170.057,17.17 170.953,17.709 C 171.849,18.248 172.82,18.518 173.865,18.518 C 175.135,18.518 176.211,18.151 177.092,17.416 C 177.973,16.681 178.569,15.593 178.881,14.147 z "
   id="path19" />
	<path
   d="M 183.276,11.81 C 183.276,8.957 184.042,6.725 185.574,5.112 C 187.106,3.498 189.084,2.691 191.507,2.691 C 193.094,2.691 194.525,3.07 195.798,3.828 C 197.071,4.587 198.043,5.643 198.712,6.999 C 199.38,8.354 199.714,9.893 199.714,11.611 C 199.714,13.354 199.362,14.913 198.659,16.288 C 197.955,17.663 196.958,18.705 195.669,19.412 C 194.379,20.119 192.987,20.473 191.495,20.473 C 189.877,20.473 188.431,20.082 187.157,19.301 C 185.883,18.52 184.918,17.452 184.261,16.101 C 183.604,14.748 183.276,13.318 183.276,11.81 z M 185.62,11.839 C 185.62,13.909 186.177,15.54 187.291,16.732 C 188.405,17.924 189.803,18.519 191.483,18.519 C 193.195,18.519 194.604,17.917 195.711,16.714 C 196.818,15.511 197.37,13.804 197.37,11.593 C 197.37,10.195 197.134,8.974 196.661,7.931 C 196.187,6.888 195.495,6.079 194.585,5.505 C 193.675,4.931 192.652,4.644 191.519,4.644 C 189.909,4.644 188.523,5.197 187.362,6.302 C 186.201,7.407 185.62,9.253 185.62,11.839 z "
   id="path21" />
	<path
   d="M 201.944,11.81 C 201.944,8.957 202.71,6.725 204.242,5.112 C 205.774,3.498 207.752,2.691 210.175,2.691 C 211.762,2.691 213.193,3.07 214.466,3.828 C 215.739,4.587 216.711,5.643 217.38,6.999 C 218.048,8.354 218.382,9.893 218.382,11.611 C 218.382,13.354 218.03,14.913 217.327,16.288 C 216.623,17.663 215.626,18.705 214.337,19.412 C 213.047,20.119 211.655,20.473 210.163,20.473 C 208.545,20.473 207.099,20.082 205.825,19.301 C 204.551,18.52 203.586,17.452 202.929,16.101 C 202.272,14.748 201.944,13.318 201.944,11.81 z M 204.288,11.839 C 204.288,13.909 204.845,15.54 205.959,16.732 C 207.073,17.924 208.471,18.519 210.151,18.519 C 211.863,18.519 213.272,17.917 214.379,16.714 C 215.486,15.511 216.038,13.804 216.038,11.593 C 216.038,10.195 215.802,8.974 215.329,7.931 C 214.855,6.888 214.163,6.079 213.253,5.505 C 212.343,4.931 211.32,4.644 210.187,4.644 C 208.577,4.644 207.191,5.197 206.03,6.302 C 204.869,7.407 204.288,9.253 204.288,11.839 z "
   id="path23" />
</g>
<path
   d="M 161.17393,16.620175 L 161.98048,18.045175 L 138.61143,31.536125 L 137.75643,31.107675 L 137.75643,30.157675 L 161.17393,16.620175 z "
   id="polygon25" />
<path
   style="fill:none;stroke:#000000;stroke-width:1.28250003"
   d="M 211.04893,2.751125 L 218.64893,2.751125 M 168.86798,60.130175 L 176.46798,60.130175 M 172.66798,56.330175 L 172.66798,63.930175"
   id="path27" />
<path
   d="M 72.443925,32.057675 L 72.443925,30.205175 L 105.12393,11.348625 L 105.12393,13.201125 L 72.443925,32.057675 z "
   id="polygon29" />
<g
   id="g31"
   transform="matrix(0.95,0,0,0.95,5.622825,2.109875)">
	<path
   d="M 62.144,71.26 C 62.144,68.407 62.91,66.175 64.442,64.562 C 65.974,62.948 67.952,62.141 70.375,62.141 C 71.962,62.141 73.392,62.52 74.666,63.278 C 75.94,64.037 76.911,65.093 77.58,66.449 C 78.249,67.805 78.582,69.343 78.582,71.061 C 78.582,72.804 78.23,74.363 77.527,75.738 C 76.824,77.113 75.827,78.155 74.537,78.862 C 73.247,79.569 71.856,79.923 70.363,79.923 C 68.745,79.923 67.299,79.532 66.025,78.751 C 64.751,77.97 63.786,76.902 63.129,75.551 C 62.472,74.2 62.144,72.769 62.144,71.26 z M 64.488,71.289 C 64.488,73.359 65.045,74.99 66.159,76.182 C 67.273,77.374 68.671,77.969 70.351,77.969 C 72.063,77.969 73.472,77.367 74.579,76.164 C 75.685,74.961 76.238,73.254 76.238,71.043 C 76.238,69.645 76.002,68.424 75.529,67.381 C 75.056,66.338 74.364,65.529 73.453,64.955 C 72.542,64.381 71.52,64.094 70.387,64.094 C 68.777,64.094 67.391,64.647 66.23,65.752 C 65.069,66.857 64.488,68.703 64.488,71.289 z "
   id="path33" />
</g>
<path
   d="M 74.486424,29.492674 L 76.101424,29.492674 L 76.101424,58.991125 L 74.486424,58.991125 L 74.486424,29.492674 z "
   id="rect35" />
<path
   d="M 68.833927,29.492674 L 70.448927,29.492674 L 70.448927,58.991125 L 68.833927,58.991125 L 68.833927,29.492674 z "
   id="rect37" />
<g
   id="g39"
   transform="matrix(0.95,0,0,0.95,5.622825,2.109875)">
	<path
   d="M 0,20.175 L 0,2.987 L 2.281,2.987 L 2.281,10.05 L 11.172,10.05 L 11.172,2.987 L 13.453,2.987 L 13.453,20.175 L 11.172,20.175 L 11.172,12.081 L 2.281,12.081 L 2.281,20.175 L 0,20.175 L 0,20.175 z "
   id="path41" />
</g>
<g
   id="g43"
   transform="matrix(0.95,0,0,0.95,5.622825,2.109875)">
	<path
   d="M 23.774,23.159 L 23.774,24.675 L 15.243,24.675 C 15.231,24.294 15.293,23.928 15.429,23.576 C 15.647,22.996 15.996,22.425 16.477,21.863 C 16.957,21.301 17.647,20.652 18.547,19.916 C 19.943,18.763 20.889,17.852 21.387,17.182 C 21.885,16.512 22.134,15.877 22.134,15.279 C 22.134,14.653 21.909,14.126 21.459,13.695 C 21.009,13.265 20.422,13.05 19.699,13.05 C 18.933,13.05 18.322,13.279 17.863,13.738 C 17.404,14.197 17.172,14.832 17.166,15.643 L 15.541,15.471 C 15.652,14.255 16.072,13.329 16.801,12.693 C 17.529,12.055 18.507,11.737 19.735,11.737 C 20.974,11.737 21.955,12.08 22.677,12.766 C 23.399,13.452 23.76,14.302 23.76,15.316 C 23.76,15.832 23.654,16.339 23.443,16.837 C 23.232,17.335 22.88,17.86 22.39,18.411 C 21.899,18.962 21.086,19.718 19.95,20.679 C 18.999,21.477 18.388,22.017 18.117,22.302 C 17.846,22.585 17.621,22.871 17.444,23.158 L 23.774,23.158 L 23.774,23.159 z "
   id="path45" />
</g>
<g
   id="g47"
   transform="matrix(0.95,0,0,0.95,5.622825,2.109875)">
	<path
   d="M 26.773,20.175 L 26.773,2.987 L 29.113,2.987 L 38.117,16.476 L 38.117,2.987 L 40.305,2.987 L 40.305,20.175 L 37.965,20.175 L 28.961,6.686 L 28.961,20.175 L 26.773,20.175 z "
   id="path49" />
</g>
<path
   d="M 49.168925,18.616125 L 49.976425,17.191125 L 72.443925,30.205175 L 72.443925,32.057675 L 49.168925,18.616125 z "
   id="polygon51" />
</svg>