<?xml version="1.0" encoding="utf-8"?>
<!-- Generator: Adobe Illustrator 19.2.1, SVG Export Plug-In . SVG Version: 6.00 Build 0)  -->
<svg version="1.1" id="Слой_1" xmlns="http://www.w3.org/2000/svg" xmlns:xlink="http://www.w3.org/1999/xlink" x="0px" y="0px"
	 viewBox="0 0 354 207.4" style="enable-background:new 0 0 354 207.4;" xml:space="preserve">
<rect x="30.6" y="103.2" transform="matrix(0.8089 -0.588 0.588 0.8089 -51.9649 48.88)" width="37.3" height="2.4"/>
<rect x="42.1" y="109.8" transform="matrix(0.8096 -0.587 0.587 0.8096 -54.177 55.031)" width="31.3" height="2.4"/>
<rect x="38.5" y="114.5" transform="matrix(0.9512 -0.3085 0.3085 0.9512 -38.9198 18.6994)" width="2.4" height="35.9"/>
<rect x="69.6" y="168.9" width="40" height="2.4"/>
<rect x="89.6" y="141.5" transform="matrix(0.3093 -0.951 0.951 0.3093 -53.936 211.2178)" width="57.6" height="2.4"/>
<rect x="85.8" y="138.4" transform="matrix(0.3084 -0.9513 0.9513 0.3084 -57.6684 199.794)" width="45.6" height="2.4"/>
<rect x="111" y="85.7" transform="matrix(0.5879 -0.8089 0.8089 0.5879 -38.1768 133.8138)" width="2.4" height="37.3"/>
<rect x="123.5" y="99.7" transform="matrix(0.866 -0.5001 0.5001 0.866 -30.0699 89.6834)" width="57.6" height="2.4"/>
<rect x="200.9" y="72.1" transform="matrix(0.5 -0.866 0.866 0.5 13.6577 225.5308)" width="2.4" height="57.6"/>
<rect x="223.6" y="101.2" transform="matrix(0.8661 -0.4998 0.4998 0.8661 -17.8063 138.3922)" width="51.6" height="2.4"/>
<polygon points="225.9,115.3 228.3,115.3 234.7,152 219.5,152 "/>
<rect x="289.1" y="78.9" transform="matrix(0.5007 -0.8656 0.8656 0.5007 58.1904 301.3532)" width="2.4" height="42.7"/>
<rect x="270.6" y="47.8" width="2.4" height="41.8"/>
<path d="M311.2,101.7l-6.9-4l1.2-2.1l6.9,4L311.2,101.7z M297.8,94l-6.9-4l1.2-2.1l6.9,4L297.8,94z M284.3,86.2l-3.4-1.9v-5.5h2.4
	v4.1l2.2,1.3L284.3,86.2z M283.4,71.3H281v-8h2.4V71.3z M283.4,55.8H281v-8h2.4V55.8z"/>
<polygon points="73,95.1 73,73.1 73.1,73.1 88.6,95.1 92,95.1 92,66.9 88.5,66.9 88.5,89.1 88.3,89.1 72.9,66.9 69.5,66.9 
	69.5,95.1 "/>
<polygon points="33.6,117.6 32.7,114.9 35,113.2 36.4,115.1 35.5,115.8 35.9,116.9 "/>
<polygon points="44.2,183.8 44.2,161.7 44.3,161.7 59.8,183.8 63.2,183.8 63.2,155.6 59.7,155.6 59.7,177.7 59.5,177.7 44.1,155.6 
	40.7,155.6 40.7,183.8 "/>
<polygon points="36.7,183.8 36.7,155.6 33.2,155.6 33.2,167.8 17.7,167.8 17.7,155.6 14.2,155.6 14.2,183.8 17.7,183.8 17.7,170.9 
	33.2,170.9 33.2,183.8 "/>
<polygon points="110.4,171.3 107.5,171.3 107.5,168.9 108.6,168.9 109,167.9 111.3,168.6 "/>
<polygon points="178.3,88.6 177.2,87.9 176.1,88.6 174.9,86.5 177.2,85.1 179.5,86.5 "/>
<rect x="297.7" y="69.5" width="14" height="2.2"/>
<path d="M304.7,82.3c-6.4,0-11.7-5.3-11.7-11.7c0-6.4,5.2-11.7,11.7-11.7s11.7,5.2,11.7,11.7C316.4,77,311.1,82.3,304.7,82.3z
	 M304.7,61.3c-5.1,0-9.3,4.2-9.3,9.3c0,5.1,4.2,9.3,9.3,9.3s9.3-4.2,9.3-9.3C314,65.4,309.8,61.3,304.7,61.3z"/>
<polygon points="219.3,186.6 219.3,164.5 219.5,164.5 234.9,186.6 238.3,186.6 238.3,158.4 234.8,158.4 234.8,180.5 234.7,180.5 
	219.2,158.4 215.8,158.4 215.8,186.6 "/>
<polygon points="193.9,186.6 193.9,158.4 190.4,158.4 190.4,170.6 175,170.6 175,158.4 171.4,158.4 171.4,186.6 175,186.6 
	175,173.7 190.4,173.7 190.4,186.6 "/>
<path d="M202.3,183.7h2.5c2.8,0,4.6,1.4,4.6,3.8c0,2-1.8,3.5-4.5,3.5s-4.3-1.4-4.6-3.4h-2.4c0.2,3.3,2.8,5.6,7,5.6
	c3.9,0,7-2.4,7-5.8c0-2.8-1.9-4.6-4.9-4.8v-0.1c2.4-0.4,4-2.2,4-4.7c0-3-2.7-5.1-6.2-5.1c-3.7,0-6.2,2.2-6.5,5.5h2.4
	c0.2-2,1.7-3.4,4-3.4c2.5,0,3.8,1.3,3.8,3.3c0,2-1.6,3.5-3.9,3.5h-2.4V183.7z"/>
<polygon points="255.9,158 261.8,158 261.8,155.8 255.9,155.8 255.9,149.7 253.7,149.7 253.7,155.8 247.8,155.8 247.8,158 
	253.7,158 253.7,164.3 255.9,164.3 "/>
<path d="M254.8,168.7c-6.4,0-11.7-5.3-11.7-11.7c0-6.4,5.2-11.7,11.7-11.7c6.4,0,11.7,5.2,11.7,11.7
	C266.5,163.4,261.2,168.7,254.8,168.7z M254.8,147.7c-5.1,0-9.3,4.2-9.3,9.3c0,5.1,4.2,9.3,9.3,9.3c5.1,0,9.3-4.2,9.3-9.3
	C264.1,151.8,259.9,147.7,254.8,147.7z"/>
<path d="M326.8,103.8c5.8,0,9.4,4.4,9.4,11.3c0,6.9-3.6,11.3-9.4,11.3s-9.4-4.4-9.4-11.3C317.5,108.2,321.1,103.8,326.8,103.8z
	 M326.8,100.6c-8,0-13,5.6-13,14.6c0,8.9,5,14.6,13,14.6c8,0,13-5.6,13-14.6C339.8,106.2,334.8,100.6,326.8,100.6z"/>
<path d="M277,17.4c5.8,0,9.4,4.4,9.4,11.3c0,6.9-3.6,11.3-9.4,11.3c-5.8,0-9.4-4.4-9.4-11.3C267.6,21.8,271.2,17.4,277,17.4z
	 M277,14.2c-8,0-13,5.6-13,14.6c0,8.9,5,14.6,13,14.6c8,0,13-5.6,13-14.6C290,19.8,285,14.2,277,14.2z"/>
</svg>
