<?xml version="1.0" encoding="UTF-8" standalone="no"?>
<!-- Generator: Adobe Illustrator 12.0.1, SVG Export Plug-In . SVG Version: 6.00 Build 51448)  -->
<svg
   xmlns:dc="http://purl.org/dc/elements/1.1/"
   xmlns:cc="http://web.resource.org/cc/"
   xmlns:rdf="http://www.w3.org/1999/02/22-rdf-syntax-ns#"
   xmlns:svg="http://www.w3.org/2000/svg"
   xmlns="http://www.w3.org/2000/svg"
   xmlns:sodipodi="http://sodipodi.sourceforge.net/DTD/sodipodi-0.dtd"
   xmlns:inkscape="http://www.inkscape.org/namespaces/inkscape"
   version="1.1"
   id="Layer_1"
   width="231.546"
   height="121.185"
   viewBox="0 0 231.546 121.185"
   style="overflow:visible;enable-background:new 0 0 231.546 121.185;"
   xml:space="preserve"
   sodipodi:version="0.32"
   inkscape:version="0.45.1"
   sodipodi:docname="L-Isoleucin.svg"
   inkscape:output_extension="org.inkscape.output.svg.inkscape"
   sodipodi:docbase="C:\"><metadata
   id="metadata76"><rdf:RDF><cc:Work
       rdf:about=""><dc:format>image/svg+xml</dc:format><dc:type
         rdf:resource="http://purl.org/dc/dcmitype/StillImage" /></cc:Work></rdf:RDF></metadata><defs
   id="defs74" /><sodipodi:namedview
   inkscape:window-height="579"
   inkscape:window-width="801"
   inkscape:pageshadow="2"
   inkscape:pageopacity="0.0"
   guidetolerance="10.0"
   gridtolerance="10.0"
   objecttolerance="10.0"
   borderopacity="1.0"
   bordercolor="#666666"
   pagecolor="#ffffff"
   id="base"
   inkscape:zoom="3.0965769"
   inkscape:cx="115.773"
   inkscape:cy="60.592499"
   inkscape:window-x="154"
   inkscape:window-y="154"
   inkscape:current-layer="Layer_1" />
<path
   d="M 104.3388,49.280375 L 104.3388,47.426925 L 137.01975,66.236925 L 137.01975,67.186925 L 136.1638,67.614425 L 104.3388,49.280375 z "
   id="polygon3" />
<path
   d="M 137.8738,67.614425 L 137.01975,67.186925 L 137.01975,66.236925 L 169.6513,47.426925 L 169.6513,49.280375 L 137.8738,67.614425 z "
   id="polygon5" />
<g
   id="g7"
   transform="matrix(0.95,0,0,0.95,5.78865,3.029625)">
	<path
   d="M 198.644,68.619 C 198.644,65.766 199.41,63.534 200.942,61.921 C 202.474,60.307 204.452,59.5 206.875,59.5 C 208.462,59.5 209.892,59.879 211.166,60.637 C 212.44,61.396 213.411,62.452 214.079,63.808 C 214.748,65.163 215.082,66.702 215.082,68.42 C 215.082,70.163 214.73,71.722 214.026,73.097 C 213.323,74.472 212.327,75.514 211.037,76.221 C 209.747,76.928 208.356,77.282 206.863,77.282 C 205.245,77.282 203.799,76.891 202.525,76.11 C 201.251,75.329 200.286,74.261 199.629,72.91 C 198.972,71.558 198.644,70.128 198.644,68.619 z M 200.987,68.648 C 200.987,70.718 201.544,72.349 202.658,73.541 C 203.772,74.733 205.17,75.328 206.85,75.328 C 208.562,75.328 209.971,74.726 211.078,73.523 C 212.183,72.32 212.737,70.613 212.737,68.402 C 212.737,67.004 212.501,65.783 212.027,64.74 C 211.554,63.697 210.863,62.888 209.952,62.314 C 209.041,61.74 208.019,61.453 206.886,61.453 C 205.276,61.453 203.89,62.006 202.729,63.111 C 201.568,64.216 200.987,66.063 200.987,68.648 z "
   id="path9" />
	<path
   d="M 218.093,76.984 L 218.093,59.797 L 220.374,59.797 L 220.374,66.86 L 229.265,66.86 L 229.265,59.797 L 231.546,59.797 L 231.546,76.985 L 229.265,76.985 L 229.265,68.891 L 220.374,68.891 L 220.374,76.985 L 218.093,76.985 L 218.093,76.984 z "
   id="path11" />
</g>
<path
   d="M 169.6513,49.280375 L 169.6513,47.426925 L 194.1138,61.534425 L 193.30725,62.960375 L 169.6513,49.280375 z "
   id="polygon13" />
<g
   id="g15"
   transform="matrix(0.95,0,0,0.95,5.78865,3.029625)">
	<path
   d="M 164.244,9.119 C 164.244,6.266 165.01,4.034 166.541,2.421 C 168.074,0.807 170.051,0 172.475,0 C 174.061,0 175.492,0.379 176.766,1.137 C 178.039,1.896 179.01,2.952 179.679,4.308 C 180.348,5.664 180.682,7.202 180.682,8.92 C 180.682,10.663 180.33,12.222 179.626,13.597 C 178.922,14.972 177.926,16.014 176.637,16.721 C 175.346,17.428 173.955,17.782 172.463,17.782 C 170.844,17.782 169.399,17.391 168.125,16.61 C 166.85,15.829 165.885,14.761 165.229,13.41 C 164.573,12.059 164.244,10.628 164.244,9.119 z M 166.588,9.148 C 166.588,11.218 167.145,12.849 168.258,14.041 C 169.373,15.232 170.77,15.828 172.451,15.828 C 174.162,15.828 175.572,15.226 176.678,14.023 C 177.784,12.82 178.338,11.113 178.338,8.902 C 178.338,7.504 178.102,6.283 177.628,5.24 C 177.154,4.197 176.463,3.388 175.553,2.814 C 174.642,2.24 173.619,1.953 172.487,1.953 C 170.876,1.953 169.491,2.506 168.329,3.611 C 167.168,4.717 166.588,6.563 166.588,9.148 z "
   id="path17" />
</g>
<path
   d="M 165.99475,22.062875 L 167.60975,22.062875 L 167.60975,49.992874 L 165.99475,49.992874 L 165.99475,22.062875 z "
   id="rect19" />
<path
   d="M 171.69475,22.062875 L 173.30975,22.062875 L 173.30975,49.992874 L 171.69475,49.992874 L 171.69475,22.062875 z "
   id="rect21" />
<g
   id="g23"
   transform="matrix(0.95,0,0,0.95,5.78865,3.029625)">
	<path
   d="M 131.315,116.685 L 131.315,99.497 L 133.655,99.497 L 142.659,112.986 L 142.659,99.497 L 144.847,99.497 L 144.847,116.685 L 142.507,116.685 L 133.503,103.196 L 133.503,116.685 L 131.315,116.685 z "
   id="path25" />
	<path
   d="M 148.757,116.685 L 148.757,99.497 L 151.038,99.497 L 151.038,106.56 L 159.929,106.56 L 159.929,99.497 L 162.21,99.497 L 162.21,116.685 L 159.929,116.685 L 159.929,108.591 L 151.038,108.591 L 151.038,116.685 L 148.757,116.685 z "
   id="path27" />
</g>
<g
   id="g29"
   transform="matrix(0.95,0,0,0.95,5.78865,3.029625)">
	<path
   d="M 172.992,119.669 L 172.992,121.185 L 164.461,121.185 C 164.449,120.804 164.51,120.438 164.647,120.086 C 164.865,119.506 165.213,118.935 165.695,118.373 C 166.175,117.811 166.866,117.162 167.764,116.426 C 169.16,115.273 170.107,114.362 170.604,113.692 C 171.102,113.022 171.352,112.387 171.352,111.789 C 171.352,111.163 171.126,110.636 170.676,110.205 C 170.226,109.775 169.639,109.56 168.916,109.56 C 168.15,109.56 167.539,109.789 167.08,110.248 C 166.621,110.707 166.389,111.342 166.383,112.153 L 164.758,111.981 C 164.869,110.765 165.289,109.839 166.018,109.203 C 166.746,108.565 167.723,108.247 168.952,108.247 C 170.19,108.247 171.171,108.59 171.893,109.276 C 172.616,109.962 172.977,110.812 172.977,111.826 C 172.977,112.342 172.871,112.849 172.659,113.347 C 172.448,113.845 172.096,114.37 171.606,114.921 C 171.116,115.472 170.302,116.228 169.167,117.189 C 168.216,117.987 167.604,118.527 167.333,118.812 C 167.062,119.095 166.837,119.381 166.661,119.668 L 172.992,119.668 L 172.992,119.669 z "
   id="path31" />
</g>
<path
   d="M 140.62975,95.355375 L 133.3613,95.355375 L 136.1638,67.614425 L 137.01975,67.186925 L 137.8738,67.614425 L 140.62975,95.355375 z "
   id="polygon33" />
<path
   d="M 104.3388,47.426925 L 104.3388,49.280375 L 71.70725,68.136925 L 71.70725,66.236925 L 104.3388,47.426925 z "
   id="polygon35" />
<g
   id="g37"
   transform="matrix(0.95,0,0,0.95,5.78865,3.029625)">
	<path
   d="M 0,57.135 L 0,39.947 L 2.281,39.947 L 2.281,47.01 L 11.172,47.01 L 11.172,39.947 L 13.453,39.947 L 13.453,57.135 L 11.172,57.135 L 11.172,49.041 L 2.281,49.041 L 2.281,57.135 L 0,57.135 L 0,57.135 z "
   id="path39" />
</g>
<g
   id="g41"
   transform="matrix(0.95,0,0,0.95,5.78865,3.029625)">
	<path
   d="M 15.461,58.229 L 17.039,58.01 C 17.222,58.906 17.531,59.552 17.967,59.948 C 18.404,60.343 18.939,60.541 19.574,60.541 C 20.327,60.541 20.96,60.283 21.473,59.769 C 21.986,59.253 22.242,58.615 22.242,57.853 C 22.242,57.127 22.004,56.529 21.526,56.057 C 21.049,55.585 20.443,55.35 19.707,55.35 C 19.406,55.35 19.032,55.409 18.585,55.526 L 18.762,54.135 C 18.868,54.147 18.953,54.153 19.018,54.153 C 19.692,54.153 20.299,53.978 20.839,53.627 C 21.379,53.276 21.649,52.735 21.649,52.004 C 21.649,51.425 21.452,50.945 21.058,50.566 C 20.664,50.186 20.156,49.996 19.533,49.996 C 18.916,49.996 18.401,50.19 17.99,50.578 C 17.579,50.966 17.314,51.548 17.197,52.324 L 15.619,52.043 C 15.812,50.981 16.253,50.158 16.939,49.575 C 17.625,48.991 18.479,48.699 19.5,48.699 C 20.204,48.699 20.853,48.849 21.445,49.151 C 22.037,49.452 22.49,49.863 22.805,50.383 C 23.118,50.904 23.276,51.456 23.276,52.041 C 23.276,52.597 23.127,53.103 22.828,53.559 C 22.529,54.015 22.087,54.377 21.501,54.647 C 22.263,54.823 22.855,55.188 23.28,55.741 C 23.704,56.296 23.917,56.988 23.917,57.82 C 23.917,58.946 23.506,59.899 22.684,60.681 C 21.862,61.463 20.823,61.855 19.567,61.855 C 18.434,61.855 17.493,61.518 16.745,60.846 C 15.994,60.171 15.567,59.3 15.461,58.229 z "
   id="path43" />
</g>
<g
   id="g45"
   transform="matrix(0.95,0,0,0.95,5.78865,3.029625)">
	<path
   d="M 38.039,51.107 L 40.32,51.681 C 39.844,53.551 38.987,54.977 37.751,55.958 C 36.514,56.939 35.001,57.431 33.214,57.431 C 31.364,57.431 29.86,57.054 28.701,56.299 C 27.542,55.545 26.66,54.451 26.055,53.021 C 25.45,51.59 25.148,50.053 25.148,48.412 C 25.148,46.622 25.489,45.059 26.172,43.726 C 26.855,42.393 27.826,41.379 29.087,40.688 C 30.347,39.997 31.733,39.65 33.247,39.65 C 34.964,39.65 36.407,40.088 37.577,40.964 C 38.748,41.841 39.563,43.072 40.023,44.661 L 37.789,45.188 C 37.391,43.938 36.814,43.028 36.058,42.458 C 35.301,41.888 34.349,41.603 33.203,41.603 C 31.885,41.603 30.783,41.919 29.897,42.552 C 29.012,43.185 28.39,44.034 28.031,45.101 C 27.672,46.168 27.493,47.267 27.493,48.4 C 27.493,49.861 27.705,51.136 28.13,52.226 C 28.555,53.316 29.215,54.13 30.112,54.669 C 31.009,55.208 31.979,55.478 33.024,55.478 C 34.295,55.478 35.37,55.111 36.251,54.376 C 37.132,53.641 37.727,52.553 38.039,51.107 z "
   id="path47" />
</g>
<path
   d="M 71.70725,66.236925 L 71.70725,68.136925 L 47.95725,54.409425 L 48.7638,53.031925 L 71.70725,66.236925 z "
   id="polygon49" />
<g
   id="g51"
   transform="matrix(0.95,0,0,0.95,5.78865,3.029625)">
	<path
   d="M 109.231,11.457 L 111.512,12.031 C 111.036,13.901 110.179,15.327 108.943,16.308 C 107.706,17.289 106.193,17.781 104.406,17.781 C 102.556,17.781 101.052,17.404 99.893,16.649 C 98.734,15.895 97.852,14.801 97.247,13.371 C 96.642,11.94 96.34,10.403 96.34,8.762 C 96.34,6.972 96.681,5.409 97.364,4.076 C 98.047,2.743 99.018,1.729 100.279,1.038 C 101.539,0.347 102.925,-2.8865799e-015 104.439,-2.8865799e-015 C 106.156,-2.8865799e-015 107.599,0.438 108.769,1.314 C 109.94,2.191 110.755,3.422 111.215,5.011 L 108.981,5.538 C 108.583,4.288 108.006,3.378 107.25,2.808 C 106.493,2.238 105.541,1.953 104.395,1.953 C 103.077,1.953 101.975,2.269 101.089,2.902 C 100.204,3.535 99.582,4.384 99.223,5.451 C 98.864,6.518 98.685,7.617 98.685,8.75 C 98.685,10.211 98.897,11.486 99.322,12.576 C 99.747,13.666 100.407,14.48 101.304,15.019 C 102.201,15.558 103.171,15.828 104.216,15.828 C 105.487,15.828 106.562,15.461 107.443,14.726 C 108.324,13.991 108.919,12.902 109.231,11.457 z "
   id="path53" />
	<path
   d="M 114.407,17.484 L 114.407,0.297 L 116.688,0.297 L 116.688,7.36 L 125.578,7.36 L 125.578,0.297 L 127.859,0.297 L 127.859,17.485 L 125.578,17.485 L 125.578,9.391 L 116.688,9.391 L 116.688,17.485 L 114.407,17.485 L 114.407,17.484 z "
   id="path55" />
</g>
<g
   id="g57"
   transform="matrix(0.95,0,0,0.95,5.78865,3.029625)">
	<path
   d="M 129.457,18.578 L 131.035,18.359 C 131.218,19.255 131.527,19.901 131.963,20.297 C 132.4,20.692 132.936,20.89 133.57,20.89 C 134.323,20.89 134.957,20.632 135.468,20.118 C 135.982,19.602 136.238,18.964 136.238,18.202 C 136.238,17.476 136,16.878 135.522,16.406 C 135.045,15.934 134.439,15.699 133.703,15.699 C 133.402,15.699 133.028,15.758 132.581,15.875 L 132.758,14.484 C 132.863,14.496 132.949,14.502 133.014,14.502 C 133.688,14.502 134.295,14.327 134.835,13.976 C 135.375,13.625 135.645,13.084 135.645,12.353 C 135.645,11.774 135.448,11.294 135.054,10.915 C 134.66,10.536 134.152,10.345 133.529,10.345 C 132.912,10.345 132.397,10.539 131.985,10.927 C 131.574,11.315 131.309,11.897 131.192,12.673 L 129.614,12.392 C 129.807,11.33 130.248,10.507 130.934,9.924 C 131.62,9.34 132.473,9.048 133.495,9.048 C 134.199,9.048 134.848,9.198 135.44,9.5 C 136.032,9.801 136.485,10.212 136.799,10.732 C 137.112,11.253 137.27,11.805 137.27,12.39 C 137.27,12.946 137.121,13.452 136.822,13.908 C 136.523,14.364 136.081,14.726 135.495,14.996 C 136.257,15.172 136.849,15.537 137.274,16.09 C 137.698,16.645 137.911,17.337 137.911,18.169 C 137.911,19.295 137.5,20.248 136.679,21.03 C 135.857,21.812 134.818,22.204 133.562,22.204 C 132.429,22.204 131.488,21.867 130.74,21.195 C 129.989,20.521 129.563,19.649 129.457,18.578 z "
   id="path59" />
</g>
<path
   d="M 100.72975,22.014425 L 107.99725,22.014425 L 107.75975,23.630375 L 100.91975,23.630375 L 100.72975,22.014425 z "
   id="polygon61" />
<path
   d="M 101.2513,26.146925 L 107.4738,26.146925 L 107.2363,27.762875 L 101.44225,27.762875 L 101.2513,26.146925 z "
   id="polygon63" />
<path
   d="M 101.7738,30.280375 L 106.9513,30.280375 L 106.7138,31.894425 L 101.9638,31.894425 L 101.7738,30.280375 z "
   id="polygon65" />
<path
   d="M 102.29725,34.411925 L 106.42975,34.411925 L 106.19225,36.026925 L 102.4863,36.026925 L 102.29725,34.411925 z "
   id="polygon67" />
<path
   d="M 102.81975,38.544425 L 105.90725,38.544425 L 105.66975,40.159425 L 103.00975,40.159425 L 102.81975,38.544425 z "
   id="polygon69" />
<path
   d="M 103.34225,42.676925 L 105.38475,42.676925 L 105.14725,44.292875 L 103.53225,44.292875 L 103.34225,42.676925 z "
   id="polygon71" />
</svg>