<?xml version="1.0" encoding="UTF-8" standalone="no"?>
<!-- Generator: Adobe Illustrator 12.0.1, SVG Export Plug-In . SVG Version: 6.00 Build 51448)  -->
<svg
   xmlns:dc="http://purl.org/dc/elements/1.1/"
   xmlns:cc="http://web.resource.org/cc/"
   xmlns:rdf="http://www.w3.org/1999/02/22-rdf-syntax-ns#"
   xmlns:svg="http://www.w3.org/2000/svg"
   xmlns="http://www.w3.org/2000/svg"
   xmlns:sodipodi="http://sodipodi.sourceforge.net/DTD/sodipodi-0.dtd"
   xmlns:inkscape="http://www.inkscape.org/namespaces/inkscape"
   version="1.1"
   id="Layer_1"
   width="265.034"
   height="121.184"
   viewBox="0 0 265.034 121.184"
   style="overflow:visible;enable-background:new 0 0 265.034 121.184;"
   xml:space="preserve"
   sodipodi:version="0.32"
   inkscape:version="0.44.1"
   sodipodi:docname="Methionin.svg"
   sodipodi:docbase="E:\Eigene Dateien"><metadata
   id="metadata60"><rdf:RDF><cc:Work
       rdf:about=""><dc:format>image/svg+xml</dc:format><dc:type
         rdf:resource="http://purl.org/dc/dcmitype/StillImage" /></cc:Work></rdf:RDF></metadata><defs
   id="defs58" /><sodipodi:namedview
   inkscape:window-height="573"
   inkscape:window-width="925"
   inkscape:pageshadow="2"
   inkscape:pageopacity="0.0"
   guidetolerance="10.0"
   gridtolerance="10.0"
   objecttolerance="10.0"
   borderopacity="1.0"
   bordercolor="#666666"
   pagecolor="#ffffff"
   id="base"
   inkscape:zoom="3.1192237"
   inkscape:cx="132.517"
   inkscape:cy="60.591999"
   inkscape:window-x="176"
   inkscape:window-y="176"
   inkscape:current-layer="Layer_1" />
<path
   d="M 136.9896,49.2794 L 136.9896,47.4269 L 169.6696,66.2369 L 169.6696,67.1869 L 168.8621,67.6619 L 136.9896,49.2794 z "
   id="polygon3" />
<path
   d="M 170.4771,67.6619 L 169.6696,67.1869 L 169.6696,66.2369 L 202.3021,47.4269 L 202.3021,49.2794 L 170.4771,67.6619 z "
   id="polygon5" />
<g
   id="g7"
   transform="matrix(0.95,0,0,0.95,6.62585,3.0296)">
	<path
   d="M 232.131,68.619 C 232.131,65.767 232.897,63.534 234.429,61.92 C 235.961,60.307 237.939,59.5 240.362,59.5 C 241.949,59.5 243.38,59.879 244.653,60.637 C 245.926,61.395 246.898,62.452 247.567,63.808 C 248.235,65.164 248.569,66.702 248.569,68.42 C 248.569,70.162 248.217,71.722 247.514,73.097 C 246.81,74.473 245.813,75.514 244.524,76.221 C 243.234,76.928 241.842,77.282 240.35,77.282 C 238.732,77.282 237.286,76.891 236.012,76.11 C 234.738,75.329 233.773,74.262 233.116,72.91 C 232.459,71.558 232.131,70.127 232.131,68.619 z M 234.475,68.648 C 234.475,70.718 235.032,72.349 236.146,73.541 C 237.26,74.733 238.658,75.328 240.338,75.328 C 242.05,75.328 243.459,74.726 244.566,73.523 C 245.673,72.32 246.225,70.613 246.225,68.402 C 246.225,67.004 245.989,65.783 245.516,64.74 C 245.042,63.697 244.35,62.888 243.44,62.314 C 242.53,61.74 241.507,61.453 240.374,61.453 C 238.764,61.453 237.378,62.006 236.217,63.111 C 235.056,64.216 234.475,66.063 234.475,68.648 z "
   id="path9" />
	<path
   d="M 251.581,76.984 L 251.581,59.797 L 253.862,59.797 L 253.862,66.86 L 262.753,66.86 L 262.753,59.797 L 265.034,59.797 L 265.034,76.985 L 262.753,76.985 L 262.753,68.891 L 253.862,68.891 L 253.862,76.985 L 251.581,76.985 L 251.581,76.984 z "
   id="path11" />
</g>
<path
   d="M 202.3021,49.2794 L 202.3021,47.4269 L 226.7646,61.5344 L 225.9571,62.9594 L 202.3021,49.2794 z "
   id="polygon13" />
<g
   id="g15"
   transform="matrix(0.95,0,0,0.95,6.62585,3.0296)">
	<path
   d="M 197.731,9.119 C 197.731,6.267 198.497,4.034 200.03,2.42 C 201.561,0.807 203.54,0 205.962,0 C 207.55,0 208.98,0.379 210.253,1.137 C 211.527,1.895 212.499,2.952 213.167,4.308 C 213.835,5.664 214.169,7.202 214.169,8.92 C 214.169,10.662 213.817,12.222 213.114,13.597 C 212.411,14.973 211.414,16.014 210.124,16.721 C 208.835,17.428 207.443,17.782 205.95,17.782 C 204.333,17.782 202.886,17.391 201.612,16.61 C 200.338,15.829 199.374,14.762 198.716,13.41 C 198.059,12.058 197.731,10.627 197.731,9.119 z M 200.075,9.148 C 200.075,11.218 200.632,12.849 201.747,14.041 C 202.86,15.232 204.259,15.828 205.938,15.828 C 207.651,15.828 209.059,15.226 210.167,14.023 C 211.272,12.82 211.825,11.113 211.825,8.902 C 211.825,7.504 211.589,6.283 211.116,5.24 C 210.643,4.197 209.951,3.388 209.04,2.814 C 208.13,2.24 207.108,1.953 205.974,1.953 C 204.365,1.953 202.978,2.506 201.818,3.611 C 200.655,4.717 200.075,6.563 200.075,9.148 z "
   id="path17" />
</g>
<path
   d="M 198.6446,22.0619 L 200.25865,22.0619 L 200.25865,49.9919 L 198.6446,49.9919 L 198.6446,22.0619 z "
   id="rect19" />
<path
   d="M 204.3446,22.0619 L 205.95865,22.0619 L 205.95865,49.9919 L 204.3446,49.9919 L 204.3446,22.0619 z "
   id="rect21" />
<g
   id="g23"
   transform="matrix(0.95,0,0,0.95,6.62585,3.0296)">
	<path
   d="M 164.803,116.684 L 164.803,99.496 L 167.143,99.496 L 176.147,112.984 L 176.147,99.496 L 178.335,99.496 L 178.335,116.684 L 175.995,116.684 L 166.991,103.195 L 166.991,116.684 L 164.803,116.684 z "
   id="path25" />
	<path
   d="M 182.245,116.684 L 182.245,99.496 L 184.526,99.496 L 184.526,106.559 L 193.417,106.559 L 193.417,99.496 L 195.698,99.496 L 195.698,116.684 L 193.417,116.684 L 193.417,108.59 L 184.526,108.59 L 184.526,116.684 L 182.245,116.684 z "
   id="path27" />
</g>
<g
   id="g29"
   transform="matrix(0.95,0,0,0.95,6.62585,3.0296)">
	<path
   d="M 205.479,119.668 L 205.479,121.184 L 196.948,121.184 C 196.936,120.803 196.999,120.437 197.134,120.084 C 197.353,119.504 197.702,118.934 198.183,118.372 C 198.664,117.81 199.353,117.161 200.253,116.424 C 201.648,115.272 202.595,114.361 203.093,113.691 C 203.591,113.021 203.839,112.387 203.839,111.788 C 203.839,111.162 203.614,110.634 203.164,110.204 C 202.714,109.774 202.128,109.559 201.403,109.559 C 200.637,109.559 200.026,109.788 199.567,110.247 C 199.108,110.705 198.876,111.341 198.87,112.152 L 197.245,111.98 C 197.356,110.765 197.776,109.838 198.505,109.201 C 199.234,108.564 200.212,108.246 201.439,108.246 C 202.678,108.246 203.66,108.589 204.381,109.275 C 205.103,109.961 205.464,110.81 205.464,111.825 C 205.464,112.342 205.359,112.848 205.148,113.346 C 204.936,113.844 204.585,114.368 204.095,114.92 C 203.603,115.471 202.79,116.228 201.654,117.189 C 200.704,117.986 200.093,118.527 199.822,118.81 C 199.551,119.095 199.326,119.38 199.148,119.667 L 205.479,119.667 L 205.479,119.668 z "
   id="path31" />
</g>
<path
   d="M 170.4771,95.3544 L 168.8621,95.3544 L 168.8621,67.6619 L 169.6696,67.1869 L 170.4771,67.6619 L 170.4771,95.3544 z "
   id="polygon33" />
<path
   d="M 136.9896,47.4269 L 136.9896,49.2794 L 104.3571,68.1369 L 104.3571,66.2369 L 136.9896,47.4269 z "
   id="polygon35" />
<g
   id="g37"
   transform="matrix(0.95,0,0,0.95,6.62585,3.0296)">
	<path
   d="M 61.519,51.618 L 63.66,51.43 C 63.762,52.291 63.998,52.997 64.369,53.549 C 64.74,54.102 65.317,54.547 66.098,54.888 C 66.879,55.229 67.759,55.399 68.736,55.399 C 69.604,55.399 70.37,55.27 71.034,55.011 C 71.698,54.753 72.193,54.399 72.517,53.948 C 72.841,53.498 73.003,53.007 73.003,52.474 C 73.003,51.934 72.845,51.462 72.528,51.059 C 72.211,50.656 71.693,50.318 70.974,50.043 C 70.513,49.863 69.492,49.583 67.912,49.204 C 66.332,48.824 65.226,48.466 64.594,48.13 C 63.774,47.699 63.163,47.166 62.761,46.528 C 62.359,45.89 62.158,45.176 62.158,44.387 C 62.158,43.518 62.404,42.707 62.897,41.952 C 63.389,41.197 64.109,40.624 65.055,40.233 C 66.001,39.841 67.053,39.646 68.21,39.646 C 69.484,39.646 70.608,39.851 71.582,40.262 C 72.556,40.673 73.305,41.278 73.828,42.075 C 74.352,42.873 74.634,43.776 74.673,44.786 L 72.485,44.958 C 72.368,43.866 71.97,43.04 71.295,42.482 C 70.618,41.924 69.619,41.645 68.298,41.645 C 66.922,41.645 65.918,41.898 65.289,42.403 C 64.659,42.908 64.345,43.516 64.345,44.228 C 64.345,44.847 64.568,45.356 65.014,45.754 C 65.452,46.153 66.595,46.563 68.445,46.982 C 70.295,47.401 71.564,47.766 72.253,48.079 C 73.255,48.541 73.995,49.126 74.473,49.833 C 74.951,50.54 75.19,51.355 75.19,52.278 C 75.19,53.193 74.928,54.055 74.405,54.864 C 73.882,55.674 73.13,56.302 72.15,56.753 C 71.17,57.202 70.066,57.427 68.84,57.427 C 67.285,57.427 65.983,57.2 64.933,56.747 C 63.882,56.294 63.058,55.612 62.461,54.702 C 61.865,53.796 61.55,52.767 61.519,51.618 z "
   id="path39" />
</g>
<path
   d="M 104.3571,66.2369 L 104.3571,68.1369 L 80.2746,54.2194 L 81.0821,52.8419 L 104.3571,66.2369 z "
   id="polygon41" />
<g
   id="g43"
   transform="matrix(0.95,0,0,0.95,6.62585,3.0296)">
	<path
   d="M 0,76.984 L 0,59.797 L 2.281,59.797 L 2.281,66.86 L 11.172,66.86 L 11.172,59.797 L 13.453,59.797 L 13.453,76.985 L 11.172,76.985 L 11.172,68.891 L 2.281,68.891 L 2.281,76.985 L 0,76.985 L 0,76.984 z "
   id="path45" />
</g>
<g
   id="g47"
   transform="matrix(0.95,0,0,0.95,6.62585,3.0296)">
	<path
   d="M 14.461,78.078 L 16.039,77.859 C 16.222,78.755 16.531,79.402 16.967,79.797 C 17.404,80.193 17.939,80.391 18.574,80.391 C 19.327,80.391 19.96,80.133 20.473,79.618 C 20.986,79.103 21.242,78.465 21.242,77.704 C 21.242,76.977 21.004,76.379 20.526,75.907 C 20.049,75.436 19.443,75.2 18.707,75.2 C 18.406,75.2 18.032,75.259 17.585,75.376 L 17.762,73.985 C 17.868,73.997 17.953,74.003 18.018,74.003 C 18.692,74.003 19.299,73.827 19.839,73.477 C 20.379,73.126 20.649,72.585 20.649,71.854 C 20.649,71.275 20.452,70.795 20.058,70.416 C 19.664,70.036 19.156,69.846 18.533,69.846 C 17.916,69.846 17.401,70.04 16.99,70.428 C 16.578,70.817 16.314,71.399 16.197,72.174 L 14.619,71.893 C 14.812,70.831 15.253,70.008 15.939,69.424 C 16.625,68.841 17.479,68.549 18.5,68.549 C 19.204,68.549 19.853,68.699 20.445,69.001 C 21.037,69.302 21.49,69.713 21.805,70.233 C 22.118,70.754 22.276,71.306 22.276,71.891 C 22.276,72.447 22.127,72.953 21.828,73.409 C 21.529,73.865 21.087,74.227 20.501,74.497 C 21.263,74.673 21.855,75.037 22.28,75.592 C 22.704,76.145 22.917,76.838 22.917,77.67 C 22.917,78.795 22.506,79.749 21.684,80.531 C 20.862,81.314 19.823,81.705 18.567,81.705 C 17.434,81.705 16.493,81.369 15.745,80.695 C 14.994,80.021 14.567,79.148 14.461,78.078 z "
   id="path49" />
</g>
<g
   id="g51"
   transform="matrix(0.95,0,0,0.95,6.62585,3.0296)">
	<path
   d="M 37.039,70.957 L 39.32,71.531 C 38.844,73.401 37.987,74.827 36.751,75.808 C 35.514,76.79 34.001,77.281 32.214,77.281 C 30.364,77.281 28.86,76.904 27.701,76.149 C 26.542,75.394 25.66,74.302 25.055,72.871 C 24.45,71.44 24.148,69.904 24.148,68.262 C 24.148,66.471 24.489,64.909 25.172,63.576 C 25.855,62.242 26.826,61.23 28.087,60.538 C 29.347,59.846 30.733,59.5 32.247,59.5 C 33.964,59.5 35.407,59.938 36.577,60.814 C 37.748,61.691 38.563,62.923 39.023,64.511 L 36.789,65.038 C 36.391,63.788 35.814,62.878 35.058,62.308 C 34.301,61.738 33.349,61.453 32.203,61.453 C 30.885,61.453 29.783,61.769 28.897,62.402 C 28.012,63.035 27.39,63.884 27.031,64.951 C 26.672,66.018 26.493,67.117 26.493,68.25 C 26.493,69.711 26.705,70.986 27.13,72.076 C 27.555,73.166 28.215,73.98 29.112,74.519 C 30.009,75.058 30.979,75.328 32.024,75.328 C 33.295,75.328 34.37,74.961 35.251,74.226 C 36.132,73.491 36.727,72.402 37.039,70.957 z "
   id="path53" />
</g>
<path
   d="M 62.2721,52.8894 L 63.0796,54.2669 L 48.0221,62.9594 L 47.1671,61.5819 L 62.2721,52.8894 z "
   id="polygon55" />
</svg>