<?xml version="1.0" encoding="UTF-8" standalone="no"?>
<!-- Generator: Adobe Illustrator 12.0.1, SVG Export Plug-In . SVG Version: 6.00 Build 51448)  -->
<svg
   xmlns:dc="http://purl.org/dc/elements/1.1/"
   xmlns:cc="http://web.resource.org/cc/"
   xmlns:rdf="http://www.w3.org/1999/02/22-rdf-syntax-ns#"
   xmlns:svg="http://www.w3.org/2000/svg"
   xmlns="http://www.w3.org/2000/svg"
   xmlns:sodipodi="http://sodipodi.sourceforge.net/DTD/sodipodi-0.dtd"
   xmlns:inkscape="http://www.inkscape.org/namespaces/inkscape"
   version="1.1"
   id="Layer_1"
   width="186.821"
   height="121.185"
   viewBox="0 0 186.821 121.185"
   style="overflow:visible;enable-background:new 0 0 186.821 121.185;"
   xml:space="preserve"
   sodipodi:version="0.32"
   inkscape:version="0.45.1"
   sodipodi:docname="L-Serin.svg"
   inkscape:output_extension="org.inkscape.output.svg.inkscape"
   sodipodi:docbase="C:\"><metadata
   id="metadata46"><rdf:RDF><cc:Work
       rdf:about=""><dc:format>image/svg+xml</dc:format><dc:type
         rdf:resource="http://purl.org/dc/dcmitype/StillImage" /></cc:Work></rdf:RDF></metadata><defs
   id="defs44" /><sodipodi:namedview
   inkscape:window-height="579"
   inkscape:window-width="801"
   inkscape:pageshadow="2"
   inkscape:pageopacity="0.0"
   guidetolerance="10.0"
   gridtolerance="10.0"
   objecttolerance="10.0"
   borderopacity="1.0"
   bordercolor="#666666"
   pagecolor="#ffffff"
   id="base"
   inkscape:zoom="3.119198"
   inkscape:cx="93.4105"
   inkscape:cy="60.592499"
   inkscape:window-x="22"
   inkscape:window-y="22"
   inkscape:current-layer="Layer_1" />
<path
   d="M 60.732875,49.280375 L 60.732875,47.426925 L 93.412875,66.236925 L 93.412875,67.186925 L 92.557875,67.614425 L 60.732875,49.280375 z "
   id="polygon3" />
<path
   d="M 94.267875,67.614425 L 93.412875,67.186925 L 93.412875,66.236925 L 126.04538,47.426925 L 126.04538,49.280375 L 94.267875,67.614425 z "
   id="polygon5" />
<g
   id="g7"
   transform="matrix(0.95,0,0,0.95,4.670525,3.029625)">
	<path
   d="M 153.919,68.619 C 153.919,65.766 154.685,63.534 156.217,61.921 C 157.749,60.307 159.727,59.5 162.15,59.5 C 163.737,59.5 165.167,59.879 166.441,60.637 C 167.715,61.396 168.686,62.452 169.354,63.808 C 170.023,65.163 170.357,66.702 170.357,68.42 C 170.357,70.163 170.005,71.722 169.301,73.097 C 168.598,74.472 167.602,75.514 166.312,76.221 C 165.022,76.928 163.631,77.282 162.138,77.282 C 160.52,77.282 159.074,76.891 157.8,76.11 C 156.526,75.329 155.561,74.261 154.904,72.91 C 154.247,71.558 153.919,70.128 153.919,68.619 z M 156.263,68.648 C 156.263,70.718 156.82,72.349 157.934,73.541 C 159.048,74.733 160.446,75.328 162.126,75.328 C 163.838,75.328 165.247,74.726 166.354,73.523 C 167.459,72.32 168.013,70.613 168.013,68.402 C 168.013,67.004 167.777,65.783 167.303,64.74 C 166.83,63.697 166.139,62.888 165.228,62.314 C 164.317,61.74 163.295,61.453 162.162,61.453 C 160.552,61.453 159.166,62.006 158.005,63.111 C 156.844,64.216 156.263,66.063 156.263,68.648 z "
   id="path9" />
	<path
   d="M 173.368,76.984 L 173.368,59.797 L 175.649,59.797 L 175.649,66.86 L 184.54,66.86 L 184.54,59.797 L 186.821,59.797 L 186.821,76.985 L 184.54,76.985 L 184.54,68.891 L 175.649,68.891 L 175.649,76.985 L 173.368,76.985 L 173.368,76.984 z "
   id="path11" />
</g>
<path
   d="M 126.04538,49.280375 L 126.04538,47.426925 L 150.50788,61.534425 L 149.69942,62.959425 L 126.04538,49.280375 z "
   id="polygon13" />
<g
   id="g15"
   transform="matrix(0.95,0,0,0.95,4.670525,3.029625)">
	<path
   d="M 119.519,9.119 C 119.519,6.266 120.285,4.034 121.817,2.421 C 123.349,0.807 125.326,0 127.749,0 C 129.336,0 130.766,0.379 132.04,1.137 C 133.314,1.896 134.285,2.952 134.953,4.308 C 135.622,5.663 135.956,7.202 135.956,8.92 C 135.956,10.663 135.604,12.222 134.9,13.597 C 134.197,14.972 133.201,16.014 131.911,16.721 C 130.621,17.428 129.23,17.782 127.737,17.782 C 126.119,17.782 124.673,17.391 123.399,16.61 C 122.125,15.829 121.16,14.761 120.503,13.41 C 119.847,12.058 119.519,10.628 119.519,9.119 z M 121.862,9.148 C 121.862,11.218 122.419,12.849 123.533,14.041 C 124.647,15.233 126.045,15.828 127.725,15.828 C 129.437,15.828 130.846,15.226 131.953,14.023 C 133.058,12.82 133.612,11.113 133.612,8.902 C 133.612,7.504 133.376,6.283 132.902,5.24 C 132.429,4.197 131.738,3.388 130.827,2.814 C 129.916,2.24 128.894,1.953 127.761,1.953 C 126.151,1.953 124.765,2.506 123.604,3.611 C 122.443,4.716 121.862,6.563 121.862,9.148 z "
   id="path17" />
</g>
<path
   d="M 122.38693,22.061925 L 124.00288,22.061925 L 124.00288,49.991925 L 122.38693,49.991925 L 122.38693,22.061925 z "
   id="rect19" />
<path
   d="M 128.08693,22.061925 L 129.70288,22.061925 L 129.70288,49.991925 L 128.08693,49.991925 L 128.08693,22.061925 z "
   id="rect21" />
<g
   id="g23"
   transform="matrix(0.95,0,0,0.95,4.670525,3.029625)">
	<path
   d="M 86.591,116.685 L 86.591,99.497 L 88.931,99.497 L 97.935,112.986 L 97.935,99.497 L 100.123,99.497 L 100.123,116.685 L 97.783,116.685 L 88.779,103.196 L 88.779,116.685 L 86.591,116.685 z "
   id="path25" />
	<path
   d="M 104.032,116.685 L 104.032,99.497 L 106.313,99.497 L 106.313,106.56 L 115.204,106.56 L 115.204,99.497 L 117.485,99.497 L 117.485,116.685 L 115.204,116.685 L 115.204,108.591 L 106.313,108.591 L 106.313,116.685 L 104.032,116.685 z "
   id="path27" />
</g>
<g
   id="g29"
   transform="matrix(0.95,0,0,0.95,4.670525,3.029625)">
	<path
   d="M 128.268,119.669 L 128.268,121.185 L 119.737,121.185 C 119.725,120.804 119.787,120.438 119.923,120.086 C 120.142,119.506 120.49,118.935 120.972,118.373 C 121.452,117.811 122.142,117.162 123.041,116.426 C 124.437,115.273 125.384,114.362 125.881,113.692 C 126.379,113.022 126.628,112.387 126.628,111.789 C 126.628,111.163 126.403,110.636 125.952,110.205 C 125.503,109.775 124.916,109.56 124.192,109.56 C 123.426,109.56 122.815,109.789 122.356,110.248 C 121.897,110.707 121.665,111.342 121.659,112.153 L 120.034,111.981 C 120.145,110.765 120.565,109.839 121.294,109.203 C 122.023,108.565 123,108.247 124.228,108.247 C 125.466,108.247 126.448,108.59 127.169,109.276 C 127.892,109.962 128.253,110.812 128.253,111.826 C 128.253,112.342 128.148,112.849 127.936,113.347 C 127.724,113.845 127.373,114.37 126.883,114.921 C 126.392,115.472 125.579,116.228 124.443,117.189 C 123.492,117.987 122.881,118.527 122.61,118.812 C 122.339,119.095 122.114,119.381 121.937,119.668 L 128.268,119.668 L 128.268,119.669 z "
   id="path31" />
</g>
<path
   d="M 97.022875,95.355375 L 89.755375,95.355375 L 92.557875,67.614425 L 93.412875,67.186925 L 94.267875,67.614425 L 97.022875,95.355375 z "
   id="polygon33" />
<g
   id="g35"
   transform="matrix(0.95,0,0,0.95,4.670525,3.029625)">
	<path
   d="M 0,76.984 L 0,59.797 L 2.281,59.797 L 2.281,66.86 L 11.172,66.86 L 11.172,59.797 L 13.453,59.797 L 13.453,76.985 L 11.172,76.985 L 11.172,68.891 L 2.281,68.891 L 2.281,76.985 L 0,76.985 L 0,76.984 z "
   id="path37" />
	<path
   d="M 16.551,68.619 C 16.551,65.766 17.317,63.534 18.849,61.921 C 20.381,60.307 22.359,59.5 24.782,59.5 C 26.369,59.5 27.799,59.879 29.073,60.637 C 30.347,61.396 31.318,62.452 31.987,63.808 C 32.656,65.164 32.989,66.702 32.989,68.42 C 32.989,70.163 32.637,71.722 31.934,73.097 C 31.231,74.472 30.234,75.514 28.944,76.221 C 27.654,76.928 26.263,77.282 24.77,77.282 C 23.152,77.282 21.706,76.891 20.432,76.11 C 19.158,75.329 18.193,74.261 17.536,72.91 C 16.879,71.559 16.551,70.128 16.551,68.619 z M 18.895,68.648 C 18.895,70.718 19.452,72.349 20.566,73.541 C 21.68,74.733 23.078,75.328 24.758,75.328 C 26.47,75.328 27.879,74.726 28.986,73.523 C 30.092,72.32 30.645,70.613 30.645,68.402 C 30.645,67.004 30.409,65.783 29.936,64.74 C 29.463,63.697 28.771,62.888 27.86,62.314 C 26.949,61.74 25.927,61.453 24.794,61.453 C 23.184,61.453 21.798,62.006 20.637,63.111 C 19.476,64.216 18.895,66.063 18.895,68.648 z "
   id="path39" />
</g>
<path
   d="M 37.172875,62.911925 L 36.365375,61.486925 L 60.732875,47.426925 L 60.732875,49.280375 L 37.172875,62.911925 z "
   id="polygon41" />
</svg>