<?xml version="1.0" encoding="UTF-8" standalone="no"?>
<!-- Generator: Adobe Illustrator 12.0.1, SVG Export Plug-In . SVG Version: 6.00 Build 51448)  -->
<svg
   xmlns:dc="http://purl.org/dc/elements/1.1/"
   xmlns:cc="http://web.resource.org/cc/"
   xmlns:rdf="http://www.w3.org/1999/02/22-rdf-syntax-ns#"
   xmlns:svg="http://www.w3.org/2000/svg"
   xmlns="http://www.w3.org/2000/svg"
   xmlns:sodipodi="http://sodipodi.sourceforge.net/DTD/sodipodi-0.dtd"
   xmlns:inkscape="http://www.inkscape.org/namespaces/inkscape"
   version="1.1"
   id="Layer_1"
   width="277.008"
   height="124.685"
   viewBox="0 0 277.008 124.685"
   style="overflow:visible;enable-background:new 0 0 277.008 124.685;"
   xml:space="preserve"
   sodipodi:version="0.32"
   inkscape:version="0.45.1"
   sodipodi:docname="L-Tryptophan.svg"
   inkscape:output_extension="org.inkscape.output.svg.inkscape"
   sodipodi:docbase="C:\"><metadata
   id="metadata74"><rdf:RDF><cc:Work
       rdf:about=""><dc:format>image/svg+xml</dc:format><dc:type
         rdf:resource="http://purl.org/dc/dcmitype/StillImage" /></cc:Work></rdf:RDF></metadata><defs
   id="defs72" /><sodipodi:namedview
   inkscape:window-height="579"
   inkscape:window-width="801"
   inkscape:pageshadow="2"
   inkscape:pageopacity="0.0"
   guidetolerance="10.0"
   gridtolerance="10.0"
   objecttolerance="10.0"
   borderopacity="1.0"
   bordercolor="#666666"
   pagecolor="#ffffff"
   id="base"
   inkscape:zoom="2.5883729"
   inkscape:cx="138.504"
   inkscape:cy="62.342499"
   inkscape:window-x="88"
   inkscape:window-y="88"
   inkscape:current-layer="Layer_1" />
<path
   d="M 148.6652,49.367875 L 148.6652,47.514425 L 181.3452,66.324425 L 181.3452,67.274425 L 180.4902,67.701925 L 148.6652,49.367875 z "
   id="polygon3" />
<path
   d="M 182.2002,67.701925 L 181.3452,67.274425 L 181.3452,66.324425 L 213.9777,47.514425 L 213.9777,49.367875 L 182.2002,67.701925 z "
   id="polygon5" />
<g
   id="g7"
   transform="matrix(0.95,0,0,0.95,6.9252,3.117125)">
	<path
   d="M 244.106,68.619 C 244.106,65.766 244.872,63.534 246.404,61.921 C 247.936,60.307 249.914,59.5 252.337,59.5 C 253.924,59.5 255.354,59.879 256.628,60.637 C 257.902,61.396 258.873,62.452 259.541,63.808 C 260.21,65.163 260.544,66.702 260.544,68.42 C 260.544,70.163 260.192,71.722 259.488,73.097 C 258.785,74.472 257.789,75.514 256.499,76.221 C 255.209,76.928 253.818,77.282 252.325,77.282 C 250.707,77.282 249.261,76.891 247.987,76.11 C 246.713,75.329 245.748,74.261 245.091,72.91 C 244.434,71.558 244.106,70.128 244.106,68.619 z M 246.45,68.648 C 246.45,70.718 247.007,72.349 248.121,73.541 C 249.235,74.733 250.633,75.328 252.313,75.328 C 254.025,75.328 255.434,74.726 256.541,73.523 C 257.646,72.32 258.2,70.613 258.2,68.402 C 258.2,67.004 257.964,65.783 257.49,64.74 C 257.017,63.697 256.326,62.888 255.415,62.314 C 254.504,61.74 253.482,61.453 252.349,61.453 C 250.739,61.453 249.353,62.006 248.192,63.111 C 247.031,64.216 246.45,66.063 246.45,68.648 z "
   id="path9" />
	<path
   d="M 263.555,76.984 L 263.555,59.797 L 265.836,59.797 L 265.836,66.86 L 274.727,66.86 L 274.727,59.797 L 277.008,59.797 L 277.008,76.985 L 274.727,76.985 L 274.727,68.891 L 265.836,68.891 L 265.836,76.985 L 263.555,76.985 L 263.555,76.984 z "
   id="path11" />
</g>
<path
   d="M 213.9777,49.367875 L 213.9777,47.514425 L 238.4402,61.621925 L 237.6327,63.046925 L 213.9777,49.367875 z "
   id="polygon13" />
<g
   id="g15"
   transform="matrix(0.95,0,0,0.95,6.9252,3.117125)">
	<path
   d="M 209.707,9.119 C 209.707,6.266 210.473,4.034 212.004,2.421 C 213.537,0.807 215.513,0 217.937,0 C 219.523,0 220.954,0.379 222.228,1.137 C 223.501,1.896 224.472,2.952 225.141,4.308 C 225.81,5.664 226.144,7.202 226.144,8.92 C 226.144,10.663 225.792,12.222 225.088,13.597 C 224.384,14.972 223.388,16.014 222.099,16.721 C 220.808,17.428 219.417,17.782 217.925,17.782 C 216.306,17.782 214.861,17.391 213.587,16.61 C 212.312,15.829 211.347,14.761 210.691,13.41 C 210.035,12.059 209.707,10.628 209.707,9.119 z M 212.05,9.148 C 212.05,11.218 212.607,12.849 213.72,14.041 C 214.835,15.232 216.232,15.828 217.913,15.828 C 219.624,15.828 221.034,15.226 222.14,14.023 C 223.246,12.82 223.8,11.113 223.8,8.902 C 223.8,7.504 223.564,6.283 223.09,5.24 C 222.616,4.197 221.925,3.388 221.015,2.814 C 220.104,2.24 219.081,1.953 217.949,1.953 C 216.338,1.953 214.953,2.506 213.791,3.611 C 212.63,4.717 212.05,6.563 212.05,9.148 z "
   id="path17" />
</g>
<path
   d="M 210.32021,22.149425 L 211.93426,22.149425 L 211.93426,50.079425 L 210.32021,50.079425 L 210.32021,22.149425 z "
   id="rect19" />
<path
   d="M 216.02021,22.149425 L 217.63426,22.149425 L 217.63426,50.079425 L 216.02021,50.079425 L 216.02021,22.149425 z "
   id="rect21" />
<g
   id="g23"
   transform="matrix(0.95,0,0,0.95,6.9252,3.117125)">
	<path
   d="M 176.778,116.685 L 176.778,99.497 L 179.118,99.497 L 188.122,112.986 L 188.122,99.497 L 190.31,99.497 L 190.31,116.685 L 187.97,116.685 L 178.966,103.196 L 178.966,116.685 L 176.778,116.685 z "
   id="path25" />
	<path
   d="M 194.219,116.685 L 194.219,99.497 L 196.5,99.497 L 196.5,106.56 L 205.391,106.56 L 205.391,99.497 L 207.672,99.497 L 207.672,116.685 L 205.391,116.685 L 205.391,108.591 L 196.5,108.591 L 196.5,116.685 L 194.219,116.685 z "
   id="path27" />
</g>
<g
   id="g29"
   transform="matrix(0.95,0,0,0.95,6.9252,3.117125)">
	<path
   d="M 218.455,119.669 L 218.455,121.185 L 209.924,121.185 C 209.912,120.804 209.973,120.438 210.11,120.086 C 210.328,119.506 210.676,118.935 211.158,118.373 C 211.638,117.811 212.329,117.162 213.227,116.426 C 214.623,115.273 215.57,114.362 216.067,113.692 C 216.565,113.022 216.815,112.387 216.815,111.789 C 216.815,111.163 216.589,110.636 216.139,110.205 C 215.689,109.775 215.102,109.56 214.379,109.56 C 213.613,109.56 213.002,109.789 212.543,110.248 C 212.084,110.707 211.852,111.342 211.846,112.153 L 210.221,111.981 C 210.332,110.765 210.752,109.839 211.481,109.203 C 212.209,108.565 213.186,108.247 214.415,108.247 C 215.653,108.247 216.634,108.59 217.356,109.276 C 218.079,109.962 218.44,110.812 218.44,111.826 C 218.44,112.342 218.334,112.849 218.122,113.347 C 217.911,113.845 217.559,114.37 217.069,114.921 C 216.579,115.472 215.765,116.228 214.63,117.189 C 213.679,117.987 213.067,118.527 212.796,118.812 C 212.525,119.095 212.3,119.381 212.124,119.668 L 218.455,119.668 L 218.455,119.669 z "
   id="path31" />
</g>
<path
   d="M 184.9552,95.442875 L 177.6877,95.442875 L 180.4902,67.701925 L 181.3452,67.274425 L 182.2002,67.701925 L 184.9552,95.442875 z "
   id="polygon33" />
<path
   d="M 116.7927,67.797875 L 116.0327,67.274425 L 115.9852,66.372875 L 148.6652,47.514425 L 148.6652,49.367875 L 116.7927,67.797875 z "
   id="polygon35" />
<g
   id="g37"
   transform="matrix(0.95,0,0,0.95,6.9252,3.117125)">
	<path
   d="M 47.837,124.685 L 47.837,107.497 L 50.118,107.497 L 50.118,114.56 L 59.009,114.56 L 59.009,107.497 L 61.29,107.497 L 61.29,124.685 L 59.009,124.685 L 59.009,116.591 L 50.118,116.591 L 50.118,124.685 L 47.837,124.685 z "
   id="path39" />
	<path
   d="M 65.06,124.685 L 65.06,107.497 L 67.4,107.497 L 76.404,120.986 L 76.404,107.497 L 78.592,107.497 L 78.592,124.685 L 76.252,124.685 L 67.248,111.196 L 67.248,124.685 L 65.06,124.685 z "
   id="path41" />
</g>
<path
   d="M 81.7852,52.930375 L 81.5952,51.932875 L 82.2602,51.361925 L 115.9852,66.372875 L 116.0327,67.274425 L 115.1777,67.797875 L 81.7852,52.930375 z "
   id="polygon43" />
<path
   d="M 57.3702,80.051925 L 56.3727,79.957875 L 56.0877,79.055375 L 80.6927,51.742875 L 81.5952,51.932875 L 81.7852,52.930375 L 57.3702,80.051925 z "
   id="polygon45" />
<path
   d="M 54.9477,74.305375 L 53.7602,73.211925 L 74.6127,50.032875 L 75.8002,51.124425 L 54.9477,74.305375 z "
   id="polygon47" />
<path
   d="M 70.0052,101.99787 L 68.6277,102.80538 L 55.8502,80.670375 L 56.3727,79.957875 L 57.3702,80.051925 L 70.0052,101.99787 z "
   id="polygon49" />
<path
   d="M 111.3302,104.08693 L 112.8502,105.46443 L 84.4452,111.49693 L 84.1127,109.88288 L 111.3302,104.08693 z "
   id="polygon51" />
<path
   d="M 115.1777,67.797875 L 116.0327,67.274425 L 116.7927,67.797875 L 112.8502,105.46443 L 111.3302,104.08693 L 115.1777,67.797875 z "
   id="polygon53" />
<path
   d="M 109.1927,70.695375 L 110.7602,70.836925 L 107.6727,100.19288 L 106.1052,100.00193 L 109.1927,70.695375 z "
   id="polygon55" />
<path
   d="M 69.2927,16.782875 L 70.5752,15.405375 L 82.2602,51.361925 L 81.5952,51.932875 L 80.6927,51.742875 L 69.2927,16.782875 z "
   id="polygon57" />
<path
   d="M 33.3352,9.135375 L 32.7652,7.376925 L 70.5752,15.405375 L 69.2927,16.782875 L 33.3352,9.135375 z "
   id="polygon59" />
<path
   d="M 65.730154,20.161095 L 65.397642,21.727878 L 34.905778,15.256695 L 35.238291,13.689912 L 65.730154,20.161095 z "
   id="rect61" />
<path
   d="M 8.7302,36.447875 L 6.9252,36.067875 L 32.7652,7.376925 L 33.3352,9.135375 L 8.7302,36.447875 z "
   id="polygon63" />
<path
   d="M 20.1302,71.455375 L 18.8477,72.832875 L 6.9252,36.067875 L 8.7302,36.447875 L 20.1302,71.455375 z "
   id="polygon65" />
<path
   d="M 24.6427,67.036925 L 23.0752,67.511925 L 13.4327,37.872875 L 15.0002,37.396925 L 24.6427,67.036925 z "
   id="polygon67" />
<path
   d="M 56.0877,79.055375 L 56.3727,79.957875 L 55.8502,80.670375 L 18.8477,72.832875 L 20.1302,71.455375 L 56.0877,79.055375 z "
   id="polygon69" />
</svg>