<?xml version="1.0" encoding="UTF-8" standalone="no"?>
<!-- Generator: Adobe Illustrator 12.0.1, SVG Export Plug-In . SVG Version: 6.00 Build 51448)  -->
<svg
   xmlns:dc="http://purl.org/dc/elements/1.1/"
   xmlns:cc="http://web.resource.org/cc/"
   xmlns:rdf="http://www.w3.org/1999/02/22-rdf-syntax-ns#"
   xmlns:svg="http://www.w3.org/2000/svg"
   xmlns="http://www.w3.org/2000/svg"
   xmlns:sodipodi="http://sodipodi.sourceforge.net/DTD/sodipodi-0.dtd"
   xmlns:inkscape="http://www.inkscape.org/namespaces/inkscape"
   version="1.1"
   id="Layer_1"
   width="196.333"
   height="121.184"
   viewBox="0 0 196.333 121.184"
   style="overflow:visible;enable-background:new 0 0 196.333 121.184;"
   xml:space="preserve"
   sodipodi:version="0.32"
   inkscape:version="0.44.1"
   sodipodi:docname="Valin.svg"
   sodipodi:docbase="E:\Eigene Dateien"><metadata
   id="metadata64"><rdf:RDF><cc:Work
       rdf:about=""><dc:format>image/svg+xml</dc:format><dc:type
         rdf:resource="http://purl.org/dc/dcmitype/StillImage" /></cc:Work></rdf:RDF></metadata><defs
   id="defs62" /><sodipodi:namedview
   inkscape:window-height="573"
   inkscape:window-width="925"
   inkscape:pageshadow="2"
   inkscape:pageopacity="0.0"
   guidetolerance="10.0"
   gridtolerance="10.0"
   objecttolerance="10.0"
   borderopacity="1.0"
   bordercolor="#666666"
   pagecolor="#ffffff"
   id="base"
   inkscape:zoom="3.1192237"
   inkscape:cx="98.166496"
   inkscape:cy="60.591999"
   inkscape:window-x="198"
   inkscape:window-y="198"
   inkscape:current-layer="Layer_1" />
<path
   d="M 70.007075,49.2794 L 70.007075,48.3294 L 70.814575,47.8544 L 102.68708,66.2369 L 102.68708,67.1869 L 101.87958,67.6619 L 70.007075,49.2794 z "
   id="polygon3" />
<path
   d="M 103.49458,67.6619 L 102.68708,67.1869 L 102.68708,66.2369 L 135.31958,47.4269 L 135.31958,49.2794 L 103.49458,67.6619 z "
   id="polygon5" />
<g
   id="g7"
   transform="matrix(0.95,0,0,0.95,4.908325,3.0296)">
	<path
   d="M 163.431,68.619 C 163.431,65.767 164.197,63.534 165.729,61.92 C 167.261,60.307 169.239,59.5 171.662,59.5 C 173.249,59.5 174.68,59.879 175.953,60.637 C 177.226,61.395 178.198,62.452 178.867,63.808 C 179.535,65.164 179.869,66.702 179.869,68.42 C 179.869,70.162 179.517,71.722 178.814,73.097 C 178.11,74.473 177.113,75.514 175.824,76.221 C 174.534,76.928 173.142,77.282 171.65,77.282 C 170.032,77.282 168.586,76.891 167.312,76.11 C 166.038,75.329 165.073,74.262 164.416,72.91 C 163.759,71.558 163.431,70.127 163.431,68.619 z M 165.775,68.648 C 165.775,70.718 166.332,72.349 167.446,73.541 C 168.56,74.733 169.958,75.328 171.638,75.328 C 173.35,75.328 174.759,74.726 175.866,73.523 C 176.973,72.32 177.525,70.613 177.525,68.402 C 177.525,67.004 177.289,65.783 176.816,64.74 C 176.342,63.697 175.65,62.888 174.74,62.314 C 173.83,61.74 172.807,61.453 171.674,61.453 C 170.064,61.453 168.678,62.006 167.517,63.111 C 166.356,64.216 165.775,66.063 165.775,68.648 z "
   id="path9" />
	<path
   d="M 182.88,76.984 L 182.88,59.797 L 185.161,59.797 L 185.161,66.86 L 194.052,66.86 L 194.052,59.797 L 196.333,59.797 L 196.333,76.985 L 194.052,76.985 L 194.052,68.891 L 185.161,68.891 L 185.161,76.985 L 182.88,76.985 L 182.88,76.984 z "
   id="path11" />
</g>
<path
   d="M 135.31958,49.2794 L 135.31958,47.4269 L 159.78208,61.5344 L 158.97458,62.9594 L 135.31958,49.2794 z "
   id="polygon13" />
<g
   id="g15"
   transform="matrix(0.95,0,0,0.95,4.908325,3.0296)">
	<path
   d="M 129.031,9.119 C 129.031,6.267 129.797,4.034 131.33,2.42 C 132.861,0.807 134.84,0 137.262,0 C 138.85,0 140.28,0.379 141.553,1.137 C 142.827,1.895 143.799,2.952 144.467,4.308 C 145.135,5.664 145.469,7.202 145.469,8.92 C 145.469,10.662 145.117,12.222 144.414,13.597 C 143.711,14.973 142.714,16.014 141.424,16.721 C 140.135,17.428 138.743,17.782 137.25,17.782 C 135.633,17.782 134.186,17.391 132.912,16.61 C 131.638,15.829 130.674,14.762 130.016,13.41 C 129.359,12.058 129.031,10.627 129.031,9.119 z M 131.375,9.148 C 131.375,11.218 131.932,12.849 133.047,14.041 C 134.16,15.232 135.559,15.828 137.238,15.828 C 138.951,15.828 140.359,15.226 141.467,14.023 C 142.572,12.82 143.125,11.113 143.125,8.902 C 143.125,7.504 142.889,6.283 142.416,5.24 C 141.943,4.197 141.251,3.388 140.34,2.814 C 139.43,2.24 138.408,1.953 137.274,1.953 C 135.665,1.953 134.278,2.506 133.118,3.611 C 131.955,4.717 131.375,6.563 131.375,9.148 z "
   id="path17" />
</g>
<path
   d="M 131.66208,22.0619 L 133.27613,22.0619 L 133.27613,49.990951 L 131.66208,49.990951 L 131.66208,22.0619 z "
   id="rect19" />
<path
   d="M 137.36208,22.0619 L 138.97613,22.0619 L 138.97613,49.990951 L 137.36208,49.990951 L 137.36208,22.0619 z "
   id="rect21" />
<g
   id="g23"
   transform="matrix(0.95,0,0,0.95,4.908325,3.0296)">
	<path
   d="M 96.103,116.684 L 96.103,99.496 L 98.443,99.496 L 107.447,112.984 L 107.447,99.496 L 109.635,99.496 L 109.635,116.684 L 107.295,116.684 L 98.291,103.195 L 98.291,116.684 L 96.103,116.684 z "
   id="path25" />
	<path
   d="M 113.544,116.684 L 113.544,99.496 L 115.825,99.496 L 115.825,106.559 L 124.716,106.559 L 124.716,99.496 L 126.997,99.496 L 126.997,116.684 L 124.716,116.684 L 124.716,108.59 L 115.825,108.59 L 115.825,116.684 L 113.544,116.684 z "
   id="path27" />
</g>
<g
   id="g29"
   transform="matrix(0.95,0,0,0.95,4.908325,3.0296)">
	<path
   d="M 136.779,119.668 L 136.779,121.184 L 128.248,121.184 C 128.236,120.803 128.299,120.437 128.434,120.084 C 128.653,119.504 129.002,118.934 129.483,118.372 C 129.964,117.81 130.653,117.161 131.553,116.424 C 132.948,115.272 133.895,114.361 134.393,113.691 C 134.891,113.021 135.139,112.387 135.139,111.788 C 135.139,111.162 134.914,110.634 134.464,110.204 C 134.014,109.774 133.428,109.559 132.703,109.559 C 131.937,109.559 131.326,109.788 130.867,110.247 C 130.408,110.705 130.176,111.341 130.17,112.152 L 128.545,111.98 C 128.656,110.765 129.076,109.838 129.805,109.201 C 130.534,108.564 131.512,108.246 132.739,108.246 C 133.978,108.246 134.96,108.589 135.681,109.275 C 136.403,109.961 136.764,110.81 136.764,111.825 C 136.764,112.342 136.659,112.848 136.448,113.346 C 136.236,113.844 135.885,114.368 135.395,114.92 C 134.903,115.471 134.09,116.228 132.954,117.189 C 132.004,117.986 131.393,118.527 131.122,118.81 C 130.851,119.095 130.626,119.38 130.448,119.667 L 136.779,119.667 L 136.779,119.668 z "
   id="path31" />
</g>
<path
   d="M 103.49458,95.3544 L 101.87958,95.3544 L 101.87958,67.6619 L 102.68708,67.1869 L 103.49458,67.6619 L 103.49458,95.3544 z "
   id="polygon33" />
<g
   id="g35"
   transform="matrix(0.95,0,0,0.95,4.908325,3.0296)">
	<path
   d="M 0,76.984 L 0,59.797 L 2.281,59.797 L 2.281,66.86 L 11.172,66.86 L 11.172,59.797 L 13.453,59.797 L 13.453,76.985 L 11.172,76.985 L 11.172,68.891 L 2.281,68.891 L 2.281,76.985 L 0,76.985 L 0,76.984 z "
   id="path37" />
</g>
<g
   id="g39"
   transform="matrix(0.95,0,0,0.95,4.908325,3.0296)">
	<path
   d="M 14.461,78.078 L 16.039,77.859 C 16.222,78.755 16.531,79.402 16.967,79.797 C 17.404,80.193 17.939,80.391 18.574,80.391 C 19.327,80.391 19.96,80.133 20.473,79.618 C 20.986,79.103 21.242,78.465 21.242,77.704 C 21.242,76.977 21.004,76.379 20.526,75.907 C 20.049,75.436 19.443,75.2 18.707,75.2 C 18.406,75.2 18.032,75.259 17.585,75.376 L 17.762,73.985 C 17.868,73.997 17.953,74.003 18.018,74.003 C 18.692,74.003 19.299,73.827 19.839,73.477 C 20.379,73.126 20.649,72.585 20.649,71.854 C 20.649,71.275 20.452,70.795 20.058,70.416 C 19.664,70.036 19.156,69.846 18.533,69.846 C 17.916,69.846 17.401,70.04 16.99,70.428 C 16.578,70.817 16.314,71.399 16.197,72.174 L 14.619,71.893 C 14.812,70.831 15.253,70.008 15.939,69.424 C 16.625,68.841 17.479,68.549 18.5,68.549 C 19.204,68.549 19.853,68.699 20.445,69.001 C 21.037,69.302 21.49,69.713 21.805,70.233 C 22.118,70.754 22.276,71.306 22.276,71.891 C 22.276,72.447 22.127,72.953 21.828,73.409 C 21.529,73.865 21.087,74.227 20.501,74.497 C 21.263,74.673 21.855,75.037 22.28,75.592 C 22.704,76.145 22.917,76.838 22.917,77.67 C 22.917,78.795 22.506,79.749 21.684,80.531 C 20.862,81.314 19.823,81.705 18.567,81.705 C 17.434,81.705 16.493,81.369 15.745,80.695 C 14.994,80.021 14.567,79.148 14.461,78.078 z "
   id="path41" />
</g>
<g
   id="g43"
   transform="matrix(0.95,0,0,0.95,4.908325,3.0296)">
	<path
   d="M 37.039,70.957 L 39.32,71.531 C 38.844,73.401 37.987,74.827 36.751,75.808 C 35.514,76.79 34.001,77.281 32.214,77.281 C 30.364,77.281 28.86,76.904 27.701,76.149 C 26.542,75.394 25.66,74.302 25.055,72.871 C 24.45,71.44 24.148,69.904 24.148,68.262 C 24.148,66.471 24.489,64.909 25.172,63.576 C 25.855,62.242 26.826,61.23 28.087,60.538 C 29.347,59.846 30.733,59.5 32.247,59.5 C 33.964,59.5 35.407,59.938 36.577,60.814 C 37.748,61.691 38.563,62.923 39.023,64.511 L 36.789,65.038 C 36.391,63.788 35.814,62.878 35.058,62.308 C 34.301,61.738 33.349,61.453 32.203,61.453 C 30.885,61.453 29.783,61.769 28.897,62.402 C 28.012,63.035 27.39,63.884 27.031,64.951 C 26.672,66.018 26.493,67.117 26.493,68.25 C 26.493,69.711 26.705,70.986 27.13,72.076 C 27.555,73.166 28.215,73.98 29.112,74.519 C 30.009,75.058 30.979,75.328 32.024,75.328 C 33.295,75.328 34.37,74.961 35.251,74.226 C 36.132,73.491 36.727,72.402 37.039,70.957 z "
   id="path45" />
</g>
<path
   d="M 46.352075,62.9594 L 45.544575,61.5344 L 69.199575,47.8544 L 70.007075,48.3294 L 70.007075,49.2794 L 46.352075,62.9594 z "
   id="polygon47" />
<g
   id="g49"
   transform="matrix(0.95,0,0,0.95,4.908325,3.0296)">
	<path
   d="M 74.019,11.457 L 76.3,12.031 C 75.824,13.901 74.967,15.327 73.731,16.308 C 72.494,17.29 70.981,17.781 69.194,17.781 C 67.344,17.781 65.84,17.404 64.681,16.649 C 63.522,15.894 62.64,14.802 62.035,13.371 C 61.43,11.94 61.128,10.404 61.128,8.762 C 61.128,6.971 61.469,5.409 62.152,4.076 C 62.835,2.742 63.806,1.73 65.067,1.038 C 66.326,0.346 67.713,0 69.227,0 C 70.944,0 72.387,0.438 73.557,1.314 C 74.728,2.191 75.543,3.423 76.003,5.011 L 73.769,5.538 C 73.371,4.288 72.794,3.378 72.038,2.808 C 71.281,2.238 70.329,1.953 69.183,1.953 C 67.865,1.953 66.763,2.269 65.877,2.902 C 64.992,3.535 64.37,4.384 64.011,5.451 C 63.652,6.518 63.473,7.617 63.473,8.75 C 63.473,10.211 63.685,11.486 64.11,12.576 C 64.535,13.666 65.195,14.48 66.092,15.019 C 66.989,15.558 67.959,15.828 69.004,15.828 C 70.275,15.828 71.35,15.461 72.231,14.726 C 73.112,13.991 73.707,12.902 74.019,11.457 z "
   id="path51" />
	<path
   d="M 79.194,17.484 L 79.194,0.297 L 81.475,0.297 L 81.475,7.36 L 90.366,7.36 L 90.366,0.297 L 92.647,0.297 L 92.647,17.485 L 90.366,17.485 L 90.366,9.391 L 81.475,9.391 L 81.475,17.485 L 79.194,17.485 L 79.194,17.484 z "
   id="path53" />
</g>
<g
   id="g55"
   transform="matrix(0.95,0,0,0.95,4.908325,3.0296)">
	<path
   d="M 93.245,18.578 L 94.823,18.359 C 95.006,19.255 95.315,19.902 95.751,20.297 C 96.188,20.693 96.723,20.891 97.358,20.891 C 98.111,20.891 98.744,20.633 99.257,20.118 C 99.77,19.603 100.026,18.965 100.026,18.204 C 100.026,17.477 99.788,16.879 99.31,16.407 C 98.833,15.936 98.227,15.7 97.491,15.7 C 97.19,15.7 96.816,15.759 96.369,15.876 L 96.546,14.485 C 96.652,14.497 96.737,14.503 96.802,14.503 C 97.476,14.503 98.083,14.327 98.623,13.977 C 99.163,13.626 99.433,13.085 99.433,12.354 C 99.433,11.775 99.236,11.295 98.842,10.916 C 98.448,10.536 97.94,10.346 97.317,10.346 C 96.7,10.346 96.185,10.54 95.774,10.928 C 95.362,11.317 95.098,11.899 94.981,12.674 L 93.403,12.393 C 93.596,11.331 94.037,10.508 94.723,9.924 C 95.409,9.341 96.263,9.049 97.284,9.049 C 97.988,9.049 98.637,9.199 99.229,9.501 C 99.821,9.802 100.274,10.213 100.589,10.733 C 100.902,11.254 101.06,11.806 101.06,12.391 C 101.06,12.947 100.911,13.453 100.612,13.909 C 100.313,14.365 99.871,14.727 99.285,14.997 C 100.047,15.173 100.639,15.537 101.064,16.092 C 101.488,16.645 101.701,17.338 101.701,18.17 C 101.701,19.295 101.29,20.249 100.468,21.031 C 99.646,21.814 98.607,22.205 97.351,22.205 C 96.218,22.205 95.277,21.869 94.529,21.195 C 93.777,20.521 93.35,19.648 93.245,18.578 z "
   id="path57" />
</g>
<path
   d="M 69.199575,22.0144 L 70.814575,22.0144 L 70.814575,47.8544 L 70.007075,48.3294 L 69.199575,47.8544 L 69.199575,22.0144 z "
   id="polygon59" />
</svg>